<svg width="25" height="26" viewBox="0 0 25 26" fill="none" xmlns="http://www.w3.org/2000/svg">
<path d="M24.9996 0.5V5.50779C22.3733 5.5045 19.7721 6.01935 17.3451 7.02289C14.9181 8.02642 12.7129 9.49891 10.8559 11.356C8.99878 13.2131 7.52632 15.4184 6.5228 17.8454C5.51928 20.2725 5.00443 22.8737 5.00772 25.5H2.62241e-05C-0.00560054 21.6203 0.894327 17.7928 2.6282 14.3221C4.36208 10.8513 6.88205 7.8332 9.9876 5.50779H2.62241e-05V0.5H24.9996Z" fill="white"/>
<path d="M25.0014 6.93312V25.4993H20.0016V12.883C17.4747 13.8864 15.3072 15.6255 13.7799 17.8748C12.2526 20.1242 11.4359 22.7804 11.4353 25.4993H6.43556C6.43264 23.0603 6.91086 20.6447 7.84284 18.3909C8.77483 16.137 10.1423 14.0891 11.8668 12.3645C13.5914 10.6399 15.6393 9.27243 17.8931 8.34043C20.1469 7.40843 22.5625 6.93019 25.0014 6.93312Z" fill="white"/>
</svg>
