<svg width="80" height="80" viewBox="0 0 80 80" fill="none" xmlns="http://www.w3.org/2000/svg">
<path d="M15.385 63.3333C13.8506 63.3333 12.5694 62.8194 11.5417 61.7916C10.5139 60.7638 10 59.4827 10 57.9483V22.0516C10 20.5172 10.5139 19.2361 11.5417 18.2083C12.5694 17.1805 13.8506 16.6666 15.385 16.6666H64.615C66.1494 16.6666 67.4306 17.1805 68.4583 18.2083C69.4861 19.2361 70 20.5172 70 22.0516V57.9483C70 59.4827 69.4861 60.7638 68.4583 61.7916C67.4306 62.8194 66.1494 63.3333 64.615 63.3333H15.385ZM40 40.385L13.3333 22.9483V57.9483C13.3333 58.5466 13.5256 59.0383 13.91 59.4233C14.295 59.8077 14.7867 60 15.385 60H64.615C65.2133 60 65.705 59.8077 66.09 59.4233C66.4744 59.0383 66.6667 58.5466 66.6667 57.9483V22.9483L40 40.385ZM40 36.6666L65.6408 20H14.3592L40 36.6666ZM13.3333 22.9483V20V57.9483C13.3333 58.5466 13.5256 59.0383 13.91 59.4233C14.295 59.8077 14.7867 60 15.385 60H13.3333V22.9483Z" fill="#00FFFF"/>
</svg>
