<svg width="25" height="26" viewBox="0 0 25 26" fill="none" xmlns="http://www.w3.org/2000/svg">
<path d="M24.9996 0.5V5.50779C22.3733 5.5045 19.7721 6.01935 17.3451 7.02289C14.9181 8.02642 12.7129 9.49891 10.8559 11.356C8.99878 13.2131 7.52632 15.4184 6.5228 17.8454C5.51928 20.2725 5.00443 22.8737 5.00772 25.5H2.62241e-05C-0.00560054 21.6203 0.894327 17.7928 2.6282 14.3221C4.36208 10.8513 6.88205 7.8332 9.9876 5.50779H2.62241e-05V0.5H24.9996Z" fill="#00FFFF"/>
<path d="M25.0004 6.93302V25.4992H20.0006V12.8829C17.4737 13.8863 15.3063 15.6254 13.779 17.8747C12.2517 20.1241 11.4349 22.7803 11.4344 25.4992H6.43458C6.43166 23.0602 6.90988 20.6446 7.84186 18.3908C8.77385 16.1369 10.1413 14.089 11.8659 12.3644C13.5904 10.6398 15.6383 9.27233 17.8921 8.34033C20.146 7.40833 22.5615 6.93009 25.0004 6.93302Z" fill="#00FFFF"/>
</svg>
