<svg width="80" height="80" viewBox="0 0 80 80" fill="none" xmlns="http://www.w3.org/2000/svg">
<path d="M54.9987 38.1859C54.3109 38.1859 53.7115 37.9306 53.2004 37.42C52.6898 36.9095 52.4345 36.31 52.4345 35.6217C52.4345 34.9339 52.6898 34.3345 53.2004 33.8234C53.7115 33.3128 54.3109 33.0575 54.9987 33.0575C55.6865 33.0575 56.2859 33.3128 56.797 33.8234C57.3076 34.3345 57.5629 34.9339 57.5629 35.6217C57.5629 36.31 57.3076 36.9095 56.797 37.42C56.2859 37.9306 55.6865 38.1859 54.9987 38.1859ZM63.1012 66.6667C57.4818 66.6667 51.7212 65.2598 45.8195 62.4459C39.9179 59.6314 34.4348 55.6814 29.3704 50.5959C24.3065 45.5109 20.3673 40.0281 17.5529 34.1475C14.739 28.267 13.332 22.517 13.332 16.8975C13.332 15.8792 13.6654 15.0306 14.332 14.3517C14.9987 13.6728 15.832 13.3334 16.832 13.3334H25.0754C25.9815 13.3334 26.772 13.6187 27.447 14.1892C28.1226 14.7598 28.5801 15.4917 28.8195 16.385L30.4729 24.3334C30.6268 25.265 30.599 26.0792 30.3895 26.7759C30.1801 27.4725 29.8104 28.0431 29.2804 28.4875L21.967 35.3075C23.3343 37.7903 24.8459 40.097 26.502 42.2275C28.1581 44.3581 29.9243 46.3762 31.8004 48.2817C33.7359 50.2178 35.8193 52.0181 38.0504 53.6825C40.2809 55.347 42.7295 56.9187 45.3962 58.3975L52.5245 51.1409C53.0673 50.5553 53.6773 50.1698 54.3545 49.9842C55.0318 49.7981 55.7806 49.7606 56.6012 49.8717L63.6137 51.3075C64.5198 51.5298 65.2551 51.9861 65.8195 52.6767C66.3834 53.3667 66.6654 54.1584 66.6654 55.0517V63.1667C66.6654 64.1667 66.3259 65 65.647 65.6667C64.9681 66.3334 64.1195 66.6667 63.1012 66.6667ZM20.4029 32.1792L26.8004 26.295C27.0137 26.1239 27.1526 25.8889 27.217 25.59C27.2809 25.2906 27.2701 25.0128 27.1845 24.7567L25.7037 17.6925C25.6181 17.3503 25.4687 17.0939 25.2554 16.9234C25.0415 16.7523 24.7637 16.6667 24.422 16.6667H17.582C17.3254 16.6667 17.1118 16.7523 16.9412 16.9234C16.7701 17.0939 16.6845 17.3075 16.6845 17.5642C16.7484 19.842 17.1054 22.22 17.7554 24.6984C18.4048 27.1773 19.2873 29.6709 20.4029 32.1792ZM48.5695 59.9617C50.8212 61.0773 53.2218 61.902 55.7712 62.4359C58.3201 62.9703 60.5412 63.2567 62.4345 63.295C62.6912 63.295 62.9048 63.2095 63.0754 63.0384C63.2465 62.8673 63.332 62.6537 63.332 62.3975V55.705C63.332 55.3634 63.2465 55.0856 63.0754 54.8717C62.9048 54.6584 62.6484 54.5089 62.3062 54.4234L56.1395 53.16C55.8834 53.0745 55.6593 53.0639 55.467 53.1284C55.2743 53.1923 55.0712 53.3312 54.8579 53.545L48.5695 59.9617Z" fill="#00FFFF"/>
</svg>
