<svg width="11" height="10" viewBox="0 0 11 10" fill="none" xmlns="http://www.w3.org/2000/svg">
<path d="M10.4998 0V2.00312C9.44931 2.0018 8.40885 2.20774 7.43805 2.60915C6.46724 3.01057 5.58517 3.59957 4.84234 4.34241C4.09951 5.08525 3.51053 5.96735 3.10912 6.93817C2.70771 7.90899 2.50177 8.94946 2.50309 10H0.50001C0.49776 8.44811 0.857731 6.91711 1.55128 5.52882C2.24483 4.14054 3.25282 2.93328 4.49504 2.00312H0.50001V0H10.4998Z" fill="#00FFFF"/>
<path d="M10.5001 2.57325V9.99971H8.50016V4.95319C7.48939 5.35457 6.62241 6.05018 6.01149 6.94994C5.40057 7.84969 5.07385 8.91215 5.07365 9.99971H3.07374C3.07257 9.02413 3.26385 8.05789 3.63665 7.15635C4.00944 6.2548 4.55642 5.43565 5.24625 4.7458C5.93608 4.05596 6.75522 3.50897 7.65675 3.13617C8.55828 2.76337 9.5245 2.57208 10.5001 2.57325Z" fill="#00FFFF"/>
</svg>
