<svg width="80" height="80" viewBox="0 0 80 80" fill="none" xmlns="http://www.w3.org/2000/svg">
<path d="M39.9992 3.19995C19.6945 3.19995 3.19922 19.6952 3.19922 40C3.19922 46.5265 4.98912 52.6174 7.97422 57.9343L3.25859 74.7687C3.18326 75.0381 3.17985 75.3225 3.24872 75.5936C3.31759 75.8647 3.45632 76.1131 3.65109 76.3138C3.84586 76.5146 4.08985 76.6608 4.35875 76.7379C4.62764 76.815 4.91204 76.8202 5.18359 76.7531L22.7367 72.4031C27.8946 75.1566 33.7474 76.7999 39.9992 76.7999C60.304 76.7999 76.7992 60.3047 76.7992 40C76.7992 19.6952 60.304 3.19995 39.9992 3.19995ZM39.9992 6.39995C58.5745 6.39995 73.5992 21.4247 73.5992 40C73.5992 58.5752 58.5745 73.6 39.9992 73.6C34.0441 73.6 28.4666 72.0474 23.618 69.3343C23.2633 69.1362 22.8466 69.0803 22.4523 69.1781L7.08047 72.9874L11.2023 58.2812C11.2613 58.0734 11.2776 57.8558 11.2502 57.6415C11.2228 57.4272 11.1523 57.2206 11.043 57.0343C8.09632 52.0377 6.39922 46.2241 6.39922 40C6.39922 21.4247 21.424 6.39995 39.9992 6.39995ZM26.6273 20.8C25.6017 20.8 24.1369 21.1815 22.9336 22.4781C22.2108 23.2568 19.1992 26.1912 19.1992 31.35C19.1992 36.7284 22.9294 41.3693 23.3805 41.9656H23.3836V41.9687C23.3408 41.9125 23.9561 42.8035 24.7773 43.8718C25.5986 44.9402 26.7471 46.3434 28.1898 47.8625C31.0754 50.9006 35.1325 54.4118 40.168 56.5593C42.4869 57.5468 44.3163 58.143 45.7023 58.5781C48.271 59.3846 50.6105 59.262 52.368 59.0031C53.6834 58.8094 55.1302 58.1777 56.5617 57.2718C57.9932 56.3659 59.3962 55.2395 60.0148 53.5281C60.4581 52.3011 60.6834 51.1673 60.7648 50.2343C60.8056 49.7678 60.8108 49.3561 60.7805 48.975C60.7501 48.5938 60.7826 48.3018 60.4273 47.7187C59.6824 46.4956 58.8388 46.4637 57.9586 46.0281C57.4695 45.786 56.0771 45.1061 54.6805 44.4406C53.2854 43.7758 52.0775 43.1871 51.3336 42.9218C50.8636 42.7527 50.2897 42.5093 49.4617 42.6031C48.6337 42.6968 47.816 43.2942 47.3398 44C46.8886 44.6689 45.0718 46.8133 44.518 47.4437C44.5106 47.4392 44.5587 47.4614 44.3398 47.3531C43.6548 47.0141 42.8171 46.7258 41.5773 46.0718C40.3376 45.4179 38.7868 44.4522 37.0898 42.9562V42.9531C34.5641 40.7295 32.7949 37.9377 32.2367 37C32.2743 36.9552 32.2322 37.0094 32.3117 36.9312L32.3148 36.9281C32.8853 36.3662 33.3908 35.6952 33.818 35.2031C34.4236 34.5053 34.6909 33.8903 34.9805 33.3156C35.5575 32.1703 35.2362 30.9099 34.9023 30.2468V30.2437C34.9254 30.2896 34.7217 29.8402 34.5023 29.3218C34.2823 28.802 34.0019 28.128 33.7023 27.4093C33.1033 25.972 32.4345 24.3598 32.0367 23.4156V23.4125C31.5682 22.3002 30.9343 21.499 30.1055 21.1124C29.2767 20.7259 28.5445 20.8358 28.5148 20.8343H28.5117C27.9203 20.807 27.2713 20.8 26.6273 20.8ZM26.6273 24C27.2442 24 27.8524 24.0075 28.3617 24.0312C28.8857 24.0573 28.8531 24.0595 28.7523 24.0124C28.65 23.9647 28.7889 23.9492 29.0867 24.6562C29.4762 25.5808 30.1483 27.1987 30.7492 28.6406C31.0497 29.3615 31.3309 30.0381 31.5555 30.5687C31.7801 31.0993 31.9017 31.3956 32.043 31.6781V31.6812L32.0461 31.6843C32.1846 31.9575 32.1723 31.7826 32.1242 31.8781C31.7866 32.5482 31.7408 32.7127 31.3992 33.1062C30.8792 33.7053 30.3487 34.3734 30.068 34.65C29.8223 34.8913 29.3791 35.2672 29.1023 36.0031C28.8252 36.7401 28.9545 37.7513 29.3992 38.5062C29.9913 39.5113 31.9423 42.6868 34.9742 45.3562C36.8836 47.0394 38.6625 48.1534 40.0836 48.9031C41.5047 49.6527 42.6621 50.0905 42.9211 50.2187C43.5361 50.5231 44.2083 50.7594 44.9898 50.6656C45.7714 50.5717 46.4453 50.0975 46.8742 49.6125L46.8773 49.6093C47.4482 48.9621 49.1446 47.0251 49.9586 45.8312C49.9931 45.8434 49.9818 45.8339 50.2523 45.9312V45.9343H50.2555C50.379 45.9783 51.9261 46.6708 53.3055 47.3281C54.6849 47.9854 56.0849 48.6686 56.5398 48.8937C57.1964 49.2186 57.5066 49.4302 57.5867 49.4312C57.5921 49.572 57.5976 49.7245 57.5773 49.9562C57.5212 50.5988 57.3495 51.4883 57.0055 52.4406C56.837 52.9067 55.9592 53.8682 54.8523 54.5687C53.7454 55.2692 52.3982 55.764 51.8992 55.8375C50.3991 56.0585 48.6179 56.1392 46.6617 55.525C45.3054 55.0992 43.6141 54.5481 41.4242 53.6156C36.9829 51.7215 33.2082 48.4984 30.5117 45.6593C29.1635 44.2398 28.0833 42.9184 27.3148 41.9187C26.5478 40.9209 26.2129 40.4016 25.9336 40.0343L25.9305 40.0312C25.4347 39.3756 22.3992 35.1533 22.3992 31.35C22.3992 27.3247 24.2688 25.7463 25.2805 24.6562C25.8116 24.0839 26.3922 24 26.6273 24Z" fill="#00FFFF"/>
</svg>
