<svg width="4" height="4" viewBox="0 0 4 4" fill="none" xmlns="http://www.w3.org/2000/svg">
<path d="M3.19995 0V0.640997C2.86378 0.640575 2.53083 0.706477 2.22018 0.83493C1.90952 0.963382 1.62726 1.15186 1.38955 1.38957C1.15184 1.62728 0.963369 1.90955 0.834919 2.22021C0.706469 2.53088 0.640567 2.86383 0.640989 3.2H3.35668e-06C-0.00071687 2.70339 0.114474 2.21348 0.33641 1.76922C0.558347 1.32497 0.880903 0.93865 1.27841 0.640997H3.35668e-06V0H3.19995Z" fill="#00FFFF"/>
<path d="M3.2001 0.823423V3.19989H2.56013V1.585C2.23668 1.71345 1.95925 1.93604 1.76375 2.22396C1.56826 2.51189 1.46371 2.85187 1.46364 3.19989H0.823671C0.823297 2.8877 0.884509 2.57851 1.0038 2.29001C1.1231 2.00152 1.29813 1.73939 1.51888 1.51864C1.73962 1.29789 2.00175 1.12286 2.29024 1.00356C2.57873 0.884263 2.88792 0.823049 3.2001 0.823423Z" fill="#00FFFF"/>
</svg>
