<svg width="30" height="31" viewBox="0 0 30 31" fill="none" xmlns="http://www.w3.org/2000/svg">
<path d="M14.9991 28.2882C13.2193 28.2882 11.5529 27.9524 10 27.281C8.44708 26.6097 7.09615 25.6987 5.94719 24.5478C4.79844 23.397 3.88854 22.0459 3.2175 20.4944C2.54646 18.943 2.21094 17.2782 2.21094 15.5C2.21094 13.7202 2.54667 12.0539 3.21812 10.501C3.88937 8.94806 4.80042 7.59712 5.95125 6.44816C7.10208 5.29941 8.45323 4.38952 10.0047 3.71848C11.5561 3.04743 13.2209 2.71191 14.9991 2.71191C16.7789 2.71191 18.4452 3.04764 19.9981 3.7191C21.551 4.39035 22.902 5.30139 24.0509 6.45222C25.1997 7.60306 26.1096 8.9542 26.7806 10.5057C27.4517 12.0571 27.7872 13.7219 27.7872 15.5C27.7872 17.2798 27.4515 18.9462 26.78 20.4991C26.1087 22.052 25.1977 23.403 24.0469 24.5519C22.896 25.7007 21.5449 26.6106 19.9934 27.2816C18.442 27.9526 16.7772 28.2882 14.9991 28.2882ZM14.5887 17.0782L13.7469 17.9197C13.4458 18.221 13.2953 18.5806 13.2953 18.9985C13.2953 19.4162 13.451 19.7867 13.7625 20.11C14.0742 20.4334 14.4419 20.595 14.8656 20.595C15.2894 20.595 15.6624 20.4339 15.9847 20.1116L19.4678 16.6285C19.7899 16.306 19.9509 15.9297 19.9509 15.4997C19.9509 15.0697 19.7899 14.6937 19.4678 14.3716L15.9528 10.8566C15.6518 10.5556 15.2894 10.4024 14.8656 10.3972C14.4419 10.392 14.0742 10.5481 13.7625 10.8653C13.451 11.1828 13.2953 11.5535 13.2953 11.9772C13.2953 12.401 13.451 12.7687 13.7625 13.0803L14.5887 13.9219H11.1078C10.6789 13.9219 10.3085 14.0777 9.99687 14.3894C9.68542 14.7009 9.52969 15.0711 9.52969 15.5C9.52969 15.929 9.68542 16.2992 9.99687 16.6107C10.3085 16.9223 10.6789 17.0782 11.1078 17.0782H14.5887Z" fill="#00FFFF"/>
</svg>
