<svg width="400" height="400" viewBox="0 0 400 400" fill="none" xmlns="http://www.w3.org/2000/svg">
<rect width="400" height="400" fill="black"/>
<path d="M128.923 157.993V173.691C120.632 173.681 112.42 175.296 104.758 178.444C97.0961 181.591 90.1346 186.21 84.2722 192.034C78.4098 197.859 73.7617 204.775 70.5942 212.387C67.4267 219.999 65.802 228.157 65.8132 236.393H50.004C49.9875 224.225 52.8294 212.221 58.3037 201.336C63.7779 190.451 71.7335 180.985 81.5376 173.691H50.004V157.993H128.923Z" fill="white"/>
<path d="M128.922 178.077V236.393H113.12V196.765C105.128 199.914 98.273 205.376 93.4426 212.442C88.6123 219.507 86.0298 227.852 86.0299 236.393H70.2207C70.2114 228.732 71.7235 221.145 74.6702 214.066C77.6169 206.986 81.9405 200.554 87.3933 195.137C92.8461 189.72 99.321 185.425 106.447 182.497C113.573 179.57 121.211 178.068 128.922 178.077Z" fill="white"/>
<path d="M176.103 158.884C175.948 161.195 175.839 163.422 175.778 165.565C175.717 167.708 175.689 169.345 175.693 170.477C175.693 171.291 175.693 172.077 175.75 172.821C175.806 173.565 175.828 174.225 175.87 174.695H174.514C173.854 171.66 172.75 168.738 171.236 166.021C170.252 164.236 168.858 162.707 167.167 161.558C165.895 160.729 164.414 160.272 162.893 160.239H162.83V193.754C162.77 194.966 162.941 196.177 163.331 197.326C163.501 197.718 163.765 198.061 164.1 198.327C164.435 198.593 164.831 198.772 165.253 198.849C166.61 199.125 167.994 199.242 169.378 199.2V200.372C167.965 200.372 166.143 200.295 163.805 200.26C161.466 200.225 159.015 200.197 156.458 200.197C154.023 200.197 151.723 200.218 149.557 200.26C147.395 200.26 145.643 200.337 144.308 200.372V199.2C145.695 199.242 147.081 199.124 148.441 198.849C148.859 198.773 149.252 198.596 149.585 198.334C149.919 198.073 150.183 197.734 150.355 197.347C150.746 196.198 150.916 194.987 150.856 193.776V160.232H150.8C149.276 160.266 147.793 160.726 146.519 161.558C144.835 162.704 143.45 164.231 142.479 166.014C140.971 168.745 139.86 171.675 139.18 174.716H137.823C137.911 174.095 137.958 173.469 137.965 172.842C137.965 172.098 137.965 171.312 137.965 170.498C137.965 169.361 137.965 167.691 137.873 165.586C137.781 163.481 137.703 161.214 137.548 158.905L143.799 159.025C146.079 159.062 148.36 159.081 150.644 159.081H163.035C165.309 159.081 167.589 159.062 169.873 159.025L176.103 158.884Z" fill="white"/>
<path d="M185.837 200.786C184.255 200.851 182.685 200.487 181.295 199.734C180.179 199.094 179.284 198.132 178.731 196.976C178.203 195.858 177.93 194.638 177.932 193.404C177.869 191.981 178.262 190.576 179.056 189.39C179.816 188.335 180.815 187.472 181.973 186.871C183.189 186.216 184.464 185.676 185.781 185.257C187.113 184.826 188.38 184.405 189.581 183.993C190.627 183.662 191.614 183.17 192.505 182.534C192.857 182.283 193.142 181.952 193.336 181.568C193.531 181.185 193.629 180.76 193.622 180.33V175.116C193.612 174.421 193.502 173.731 193.297 173.067C193.084 172.322 192.665 171.651 192.089 171.13C191.339 170.535 190.39 170.244 189.433 170.316C188.825 170.312 188.22 170.399 187.638 170.576C187.102 170.727 186.594 170.964 186.134 171.278C187.331 171.654 188.383 172.389 189.143 173.383C189.76 174.269 190.088 175.323 190.083 176.4C190.128 177.109 190.005 177.818 189.723 178.471C189.44 179.123 189.007 179.7 188.458 180.155C187.366 181.055 185.984 181.533 184.566 181.502C183.886 181.542 183.206 181.432 182.575 181.179C181.943 180.927 181.376 180.539 180.913 180.042C180.035 179.037 179.57 177.739 179.614 176.407C179.578 175.312 179.897 174.235 180.525 173.334C181.266 172.378 182.203 171.589 183.273 171.018C184.593 170.303 186.027 169.817 187.511 169.579C189.223 169.28 190.958 169.132 192.696 169.137C194.501 169.126 196.302 169.314 198.065 169.699C199.682 170.057 201.157 170.882 202.303 172.071C203.144 172.963 203.698 174.085 203.893 175.292C204.157 176.939 204.275 178.606 204.246 180.274V195.979C204.208 196.651 204.279 197.324 204.458 197.972C204.498 198.127 204.59 198.263 204.718 198.359C204.846 198.454 205.004 198.504 205.164 198.499C205.491 198.495 205.809 198.392 206.075 198.204C206.372 198.014 206.655 197.818 206.937 197.621L207.523 198.618C206.589 199.397 205.491 199.958 204.309 200.26C202.993 200.616 201.633 200.793 200.269 200.786C198.939 200.842 197.612 200.627 196.369 200.155C195.552 199.841 194.866 199.262 194.42 198.513C194.048 197.837 193.835 197.086 193.798 196.316C192.999 197.581 191.946 198.668 190.704 199.509C189.249 200.415 187.552 200.86 185.837 200.786ZM191.439 196.099C191.832 196.105 192.223 196.036 192.59 195.895C192.988 195.708 193.34 195.438 193.622 195.102V182.737C193.322 183.278 192.956 183.78 192.534 184.232C192.082 184.716 191.615 185.214 191.121 185.727C190.639 186.241 190.195 186.79 189.793 187.369C189.359 187.989 189.02 188.67 188.79 189.39C188.514 190.252 188.383 191.152 188.401 192.057C188.401 193.537 188.691 194.583 189.256 195.186C189.532 195.486 189.87 195.723 190.247 195.881C190.623 196.038 191.03 196.112 191.439 196.099Z" fill="white"/>
<path d="M230.728 169.137C231.9 169.068 233.06 169.389 234.027 170.049C234.799 170.627 235.376 171.425 235.68 172.337C235.99 173.212 236.15 174.132 236.154 175.06C236.196 175.826 236.085 176.592 235.827 177.315C235.568 178.038 235.168 178.703 234.649 179.27C234.141 179.787 233.53 180.193 232.855 180.46C232.179 180.727 231.455 180.85 230.728 180.821C229.321 180.926 227.924 180.508 226.808 179.649C226.373 179.271 226.028 178.802 225.798 178.275C225.569 177.748 225.46 177.177 225.48 176.604C225.433 175.449 225.73 174.307 226.335 173.319C226.891 172.466 227.611 171.729 228.454 171.151C227.799 171.14 227.15 171.281 226.561 171.565C226.071 171.772 225.614 172.048 225.204 172.386C224.777 172.732 224.401 173.136 224.088 173.586C223.431 174.523 223.081 175.638 223.085 176.779V194.337C223.085 196.218 223.474 197.488 224.265 198.148C225.056 198.807 226.349 199.144 228.157 199.144V200.372L224.117 200.232C222.322 200.166 220.483 200.136 218.6 200.141C216.829 200.141 215.039 200.171 213.231 200.232L209.162 200.372V199.144C209.635 199.2 210.114 199.15 210.565 198.998C211.016 198.846 211.427 198.597 211.769 198.267C212.263 197.677 212.475 196.569 212.475 194.927V176.351C212.561 175.013 212.318 173.674 211.769 172.449C211.499 172.019 211.113 171.673 210.654 171.451C210.196 171.228 209.684 171.139 209.176 171.193V169.979C210.434 170.098 211.656 170.155 212.835 170.155C214.799 170.155 216.636 170.091 218.345 169.951C219.94 169.833 221.527 169.63 223.099 169.341V173.551C223.555 172.604 224.196 171.757 224.985 171.06C225.734 170.414 226.606 169.924 227.55 169.621C228.577 169.294 229.65 169.131 230.728 169.137Z" fill="white"/>
<path d="M260.277 169.137C261.737 169.087 263.192 169.325 264.558 169.839C265.475 170.2 266.294 170.773 266.945 171.509C267.595 172.33 268.04 173.292 268.245 174.316C268.556 175.88 268.693 177.473 268.655 179.067V194.927C268.655 196.569 268.853 197.678 269.248 198.267C269.498 198.58 269.823 198.825 270.194 198.978C270.564 199.131 270.968 199.189 271.367 199.144V200.372L268.04 200.232C266.562 200.166 265.116 200.136 263.703 200.141C262.173 200.141 260.677 200.171 259.217 200.232L255.919 200.372V199.144C256.249 199.173 256.581 199.106 256.873 198.95C257.166 198.794 257.406 198.557 257.564 198.267C257.961 197.2 258.123 196.061 258.038 194.927V175.881C258.053 175.191 257.975 174.501 257.805 173.832C257.689 173.355 257.431 172.924 257.063 172.597C256.683 172.309 256.212 172.165 255.735 172.19C255.023 172.193 254.323 172.374 253.7 172.716C253.051 173.062 252.503 173.57 252.111 174.19C251.692 174.846 251.476 175.61 251.489 176.386V194.927C251.405 196.061 251.566 197.2 251.963 198.267C252.122 198.557 252.364 198.795 252.657 198.951C252.951 199.107 253.284 199.174 253.616 199.144V200.372L250.578 200.232C249.208 200.155 247.83 200.155 246.417 200.155C244.765 200.155 243.093 200.185 241.402 200.246L237.566 200.386V199.144C238.033 199.194 238.506 199.141 238.95 198.99C239.394 198.838 239.8 198.591 240.138 198.267C240.625 197.678 240.844 196.569 240.844 194.927V176.351C240.929 175.013 240.687 173.674 240.138 172.449C239.867 172.019 239.48 171.672 239.02 171.45C238.56 171.228 238.046 171.139 237.538 171.193V169.979C238.803 170.099 240.018 170.155 241.197 170.155C243.161 170.155 245.005 170.092 246.714 169.951C248.306 169.833 249.891 169.629 251.461 169.341V173.551C252.27 172.075 253.532 170.895 255.064 170.183C256.703 169.458 258.483 169.101 260.277 169.137ZM278.036 169.137C279.493 169.086 280.946 169.324 282.31 169.839C283.23 170.198 284.051 170.771 284.704 171.509C285.348 172.333 285.791 173.294 285.997 174.316C286.311 175.88 286.45 177.473 286.414 179.067V194.927C286.414 196.569 286.654 197.678 287.12 198.267C287.457 198.591 287.861 198.837 288.304 198.989C288.747 199.14 289.218 199.193 289.684 199.144V200.372L286.152 200.232C284.528 200.155 282.988 200.155 281.455 200.155C279.922 200.155 278.431 200.155 276.976 200.246L273.67 200.386V199.144C274.005 199.176 274.342 199.11 274.639 198.954C274.937 198.798 275.182 198.56 275.344 198.267C275.738 197.199 275.899 196.061 275.818 194.927V175.881C275.837 175.186 275.736 174.493 275.521 173.832C275.36 173.331 275.038 172.897 274.603 172.597C274.095 172.299 273.51 172.157 272.922 172.19C272.193 172.194 271.483 172.42 270.887 172.835C270.237 173.266 269.694 173.837 269.298 174.506C268.892 175.193 268.65 175.964 268.591 176.758L268.175 174.414C269.005 172.558 270.483 171.063 272.335 170.204C274.144 169.471 276.083 169.109 278.036 169.137Z" fill="white"/>
<path d="M299.568 200.786C297.985 200.851 296.415 200.487 295.025 199.734C293.909 199.094 293.015 198.132 292.461 196.976C291.93 195.859 291.657 194.639 291.663 193.404C291.599 191.981 291.992 190.576 292.786 189.39C293.547 188.335 294.546 187.472 295.704 186.871C296.92 186.216 298.194 185.676 299.511 185.257C300.848 184.826 302.115 184.405 303.311 183.993C304.357 183.662 305.344 183.17 306.236 182.534C306.587 182.283 306.872 181.952 307.067 181.568C307.261 181.185 307.359 180.76 307.352 180.33V175.116C307.342 174.421 307.233 173.731 307.027 173.067C306.814 172.322 306.396 171.651 305.819 171.13C305.069 170.535 304.12 170.244 303.163 170.316C302.555 170.312 301.95 170.399 301.369 170.576C300.832 170.727 300.324 170.964 299.864 171.278C301.059 171.656 302.107 172.391 302.866 173.383C303.488 174.267 303.819 175.322 303.813 176.4C303.859 177.109 303.735 177.818 303.453 178.471C303.171 179.123 302.737 179.7 302.188 180.155C301.096 181.054 299.714 181.533 298.296 181.502C297.615 181.542 296.934 181.432 296.302 181.18C295.669 180.927 295.101 180.539 294.637 180.042C293.764 179.034 293.302 177.737 293.344 176.407C293.308 175.312 293.628 174.235 294.255 173.334C294.996 172.38 295.929 171.591 296.996 171.018C298.317 170.304 299.75 169.818 301.235 169.579C302.949 169.279 304.686 169.131 306.427 169.137C308.232 169.126 310.032 169.314 311.795 169.699C313.413 170.057 314.887 170.882 316.034 172.071C316.875 172.963 317.428 174.085 317.623 175.292C317.888 176.939 318.006 178.606 317.976 180.274V195.979C317.938 196.651 318.01 197.324 318.188 197.972C318.228 198.127 318.32 198.263 318.448 198.359C318.577 198.454 318.734 198.504 318.895 198.499C319.221 198.495 319.539 198.392 319.806 198.204C320.103 198.014 320.385 197.818 320.661 197.621L321.254 198.618C320.319 199.397 319.221 199.958 318.04 200.26C316.723 200.616 315.364 200.793 313.999 200.786C312.67 200.842 311.343 200.627 310.1 200.155C309.283 199.841 308.596 199.262 308.15 198.513C307.778 197.837 307.566 197.086 307.529 196.316C306.729 197.581 305.676 198.668 304.435 199.509C302.98 200.415 301.283 200.86 299.568 200.786ZM305.169 196.099C305.563 196.105 305.954 196.036 306.321 195.895C306.718 195.708 307.07 195.438 307.352 195.102V182.737C307.052 183.278 306.687 183.78 306.264 184.232L304.851 185.727C304.374 186.243 303.932 186.792 303.53 187.369C303.096 187.989 302.758 188.67 302.527 189.39C302.252 190.252 302.12 191.152 302.139 192.057C302.139 193.537 302.428 194.583 302.994 195.186C303.269 195.485 303.605 195.722 303.981 195.879C304.356 196.037 304.762 196.111 305.169 196.099Z" fill="white"/>
<path d="M338.617 169.137C340.166 169.118 341.712 169.297 343.215 169.67C344.329 169.932 345.401 170.345 346.401 170.898C347.449 171.507 348.329 172.362 348.965 173.389C349.63 174.475 349.968 175.726 349.94 176.997C349.959 177.742 349.829 178.485 349.556 179.18C349.283 179.875 348.873 180.51 348.351 181.046C347.825 181.585 347.191 182.01 346.491 182.291C345.79 182.573 345.037 182.706 344.282 182.681C343.563 182.746 342.838 182.656 342.158 182.416C341.477 182.177 340.857 181.793 340.341 181.292C339.824 180.791 339.423 180.184 339.166 179.514C338.909 178.844 338.801 178.126 338.85 177.411C338.823 176.003 339.356 174.641 340.333 173.621C341.236 172.61 342.413 171.879 343.724 171.516C343.037 171.03 342.207 170.783 341.364 170.814C340.728 170.785 340.092 170.883 339.495 171.101C338.897 171.319 338.348 171.653 337.882 172.084C336.941 173.012 336.232 174.147 335.812 175.397C335.31 176.824 334.964 178.302 334.781 179.804C334.586 181.321 334.487 182.849 334.484 184.379C334.484 187.109 334.859 189.242 335.607 190.765C336.179 192.096 337.17 193.207 338.433 193.93C339.485 194.491 340.658 194.792 341.852 194.807C342.517 194.794 343.18 194.716 343.83 194.575C344.724 194.365 345.574 193.997 346.337 193.488C347.379 192.792 348.279 191.909 348.994 190.884L349.997 191.235C349.477 192.893 348.711 194.463 347.722 195.895C346.674 197.444 345.295 198.742 343.681 199.698C341.853 200.74 339.77 201.257 337.663 201.193C335.19 201.229 332.741 200.708 330.5 199.67C328.284 198.587 326.482 196.819 325.365 194.632C324.088 192.292 323.45 189.149 323.45 185.2C323.45 181.457 324.119 178.4 325.456 176.028C326.684 173.768 328.59 171.943 330.91 170.807C333.316 169.672 335.953 169.101 338.617 169.137Z" fill="white"/>
<path d="M148.666 211.551C152.905 211.551 156.039 212.566 158.068 214.597C160.098 216.627 161.125 219.533 161.148 223.313C161.2 225.561 160.682 227.785 159.644 229.783C158.654 231.614 157.136 233.109 155.285 234.078C153.14 235.154 150.758 235.68 148.355 235.607C148.016 235.607 147.55 235.607 146.943 235.607L145.148 235.558H143.474H140.924C140.091 235.558 139.412 235.586 138.89 235.642V234.941C139.48 234.928 140.067 234.838 140.634 234.674C140.821 234.611 140.989 234.503 141.123 234.36C141.258 234.216 141.354 234.042 141.404 233.853C141.551 233.254 141.612 232.637 141.588 232.021V215.179C141.615 214.556 141.553 213.933 141.404 213.327C141.349 213.137 141.248 212.964 141.11 212.823C140.972 212.681 140.802 212.574 140.613 212.513C140.056 212.337 139.474 212.249 138.89 212.253V211.551L140.924 211.635C141.758 211.673 142.584 211.673 143.404 211.635L146.158 211.565C147.197 211.565 148.023 211.551 148.666 211.551ZM148.08 212.169C147.034 212.169 146.349 212.358 146.031 212.744C145.633 213.458 145.465 214.276 145.551 215.088V232.078C145.464 232.891 145.637 233.711 146.045 234.421C146.377 234.807 147.07 234.997 148.115 234.997C150.418 234.997 152.21 234.55 153.491 233.657C154.813 232.691 155.765 231.308 156.189 229.734C156.757 227.677 157.021 225.55 156.973 223.418C157.034 221.281 156.746 219.148 156.119 217.102C155.653 215.574 154.67 214.252 153.335 213.362C151.734 212.474 149.91 212.06 148.08 212.169Z" fill="white"/>
<path d="M170.006 217.698V232.435C169.965 232.779 169.994 233.128 170.091 233.461C170.188 233.793 170.351 234.103 170.571 234.372C171.122 234.764 171.797 234.945 172.472 234.884V235.586L170.67 235.502C169.865 235.467 169.038 235.453 168.191 235.453C167.343 235.453 166.545 235.453 165.711 235.502L163.854 235.586V234.884C164.526 234.944 165.197 234.762 165.747 234.372C165.967 234.103 166.13 233.793 166.227 233.461C166.324 233.128 166.353 232.779 166.312 232.435V221.769C166.372 220.981 166.192 220.194 165.796 219.509C165.555 219.243 165.251 219.04 164.913 218.918C164.574 218.795 164.21 218.757 163.854 218.807V218.105C164.56 218.176 165.266 218.204 165.973 218.204C166.697 218.207 167.421 218.17 168.141 218.091C168.771 218.004 169.395 217.872 170.006 217.698ZM167.972 209.516C168.629 209.496 169.268 209.733 169.752 210.176C169.979 210.387 170.16 210.642 170.284 210.926C170.408 211.21 170.472 211.516 170.472 211.825C170.472 212.134 170.408 212.44 170.284 212.723C170.16 213.007 169.979 213.262 169.752 213.474C169.268 213.916 168.629 214.153 167.972 214.133C167.316 214.154 166.679 213.917 166.199 213.474C165.972 213.262 165.791 213.007 165.667 212.723C165.543 212.44 165.479 212.134 165.479 211.825C165.479 211.516 165.543 211.21 165.667 210.926C165.791 210.642 165.972 210.387 166.199 210.176C166.679 209.732 167.316 209.495 167.972 209.516Z" fill="white"/>
<path d="M180.539 241.993C179.351 242.004 178.166 241.88 177.007 241.621C176.067 241.439 175.179 241.05 174.408 240.484C174.101 240.26 173.852 239.965 173.682 239.626C173.513 239.287 173.427 238.912 173.433 238.533C173.436 238.154 173.523 237.781 173.69 237.44C173.856 237.099 174.096 236.799 174.394 236.561C175.17 235.913 176.094 235.46 177.085 235.242L177.325 235.783C176.854 235.979 176.463 236.327 176.216 236.772C175.949 237.225 175.812 237.742 175.821 238.267C175.815 238.744 175.945 239.214 176.194 239.622C176.444 240.03 176.804 240.36 177.233 240.576C178.372 241.164 179.646 241.445 180.928 241.39C181.916 241.398 182.901 241.265 183.852 240.997C184.706 240.781 185.487 240.342 186.113 239.726C186.404 239.425 186.63 239.068 186.78 238.677C186.929 238.287 186.998 237.87 186.982 237.453C186.989 237.111 186.923 236.771 186.788 236.456C186.652 236.142 186.451 235.859 186.197 235.628C185.675 235.144 184.636 234.926 183.082 234.926H180.688C179.941 234.934 179.195 234.866 178.462 234.723C177.845 234.62 177.269 234.345 176.802 233.93C176.584 233.709 176.414 233.445 176.304 233.155C176.195 232.865 176.148 232.555 176.167 232.246C176.193 231.372 176.563 230.543 177.198 229.937C178.199 229.017 179.373 228.302 180.652 227.832L181.062 228.133C180.45 228.464 179.86 228.835 179.296 229.242C179.059 229.393 178.865 229.601 178.73 229.846C178.596 230.091 178.525 230.366 178.526 230.646C178.526 231.347 179.056 231.733 180.101 231.733H184.17C185.157 231.721 186.139 231.863 187.08 232.154C187.899 232.396 188.633 232.86 189.2 233.495C189.748 234.178 190.029 235.036 189.991 235.909C189.981 236.998 189.614 238.055 188.945 238.919C188.129 239.945 187.047 240.731 185.816 241.193C184.127 241.801 182.334 242.073 180.539 241.993ZM180.744 228.372C179.658 228.384 178.58 228.194 177.565 227.811C176.65 227.472 175.861 226.862 175.305 226.063C174.725 225.15 174.44 224.082 174.485 223.004C174.442 221.92 174.727 220.849 175.305 219.93C175.855 219.121 176.645 218.503 177.565 218.161C179.619 217.422 181.869 217.422 183.923 218.161C184.83 218.51 185.606 219.128 186.148 219.93C186.726 220.849 187.011 221.92 186.967 223.004C187.013 224.082 186.727 225.15 186.148 226.063C185.601 226.856 184.825 227.465 183.923 227.811C182.909 228.196 181.83 228.386 180.744 228.372ZM180.744 227.761C181.115 227.768 181.482 227.677 181.806 227.498C182.131 227.32 182.403 227.06 182.595 226.744C183.028 226.066 183.245 224.819 183.245 223.004C183.245 221.188 183.028 219.937 182.595 219.249C182.408 218.932 182.141 218.669 181.82 218.486C181.499 218.303 181.135 218.206 180.765 218.206C180.395 218.206 180.032 218.303 179.711 218.486C179.39 218.669 179.122 218.932 178.936 219.249C178.465 219.946 178.229 221.198 178.229 223.004C178.229 224.809 178.465 226.056 178.936 226.744C179.124 227.054 179.389 227.31 179.706 227.488C180.022 227.666 180.38 227.76 180.744 227.761ZM185.809 220.456L185.194 220.218C185.533 219.378 186.1 218.649 186.833 218.112C187.52 217.554 188.376 217.243 189.263 217.228C189.819 217.198 190.365 217.388 190.782 217.754C190.975 217.947 191.126 218.177 191.223 218.431C191.32 218.685 191.363 218.957 191.347 219.228C191.376 219.504 191.341 219.782 191.242 220.042C191.144 220.301 190.987 220.535 190.782 220.723C190.452 221.001 190.035 221.157 189.602 221.165C189.232 221.165 188.873 221.033 188.592 220.793C188.429 220.643 188.298 220.462 188.207 220.261C188.116 220.06 188.066 219.842 188.062 219.621C188.062 218.904 188.239 218.198 188.578 217.565L188.952 217.705C188.221 217.959 187.544 218.344 186.953 218.842C186.479 219.309 186.091 219.855 185.809 220.456Z" fill="white"/>
<path d="M198.595 217.698V232.435C198.554 232.779 198.582 233.128 198.679 233.461C198.777 233.794 198.94 234.103 199.16 234.372C199.711 234.764 200.386 234.945 201.06 234.884V235.586L199.266 235.502C198.454 235.467 197.627 235.453 196.787 235.453C195.946 235.453 195.141 235.453 194.307 235.502L192.442 235.586V234.884C193.117 234.945 193.792 234.764 194.343 234.372C194.562 234.103 194.724 233.793 194.82 233.46C194.915 233.127 194.943 232.779 194.901 232.435V221.769C194.959 220.982 194.782 220.196 194.392 219.509C194.15 219.243 193.845 219.039 193.505 218.917C193.165 218.795 192.8 218.757 192.442 218.807V218.105C193.149 218.176 193.855 218.204 194.562 218.204C195.288 218.207 196.015 218.17 196.737 218.091C197.365 218.004 197.986 217.873 198.595 217.698ZM196.547 209.509C197.204 209.489 197.843 209.726 198.327 210.169C198.552 210.381 198.731 210.637 198.854 210.92C198.977 211.204 199.04 211.509 199.04 211.818C199.04 212.126 198.977 212.432 198.854 212.715C198.731 212.999 198.552 213.254 198.327 213.467C197.834 213.885 197.208 214.114 196.561 214.114C195.913 214.114 195.287 213.885 194.795 213.467C194.569 213.254 194.39 212.999 194.267 212.715C194.145 212.432 194.082 212.126 194.082 211.818C194.082 211.509 194.145 211.204 194.267 210.92C194.39 210.637 194.569 210.381 194.795 210.169C195.272 209.735 195.9 209.502 196.547 209.516V209.509Z" fill="white"/>
<path d="M208.689 212.47V218.084H213.407V218.786H208.689V232.119C208.621 232.815 208.801 233.513 209.197 234.091C209.384 234.289 209.613 234.444 209.867 234.545C210.121 234.646 210.394 234.69 210.666 234.674C210.967 234.672 211.264 234.608 211.538 234.488C211.813 234.367 212.06 234.191 212.263 233.972C212.848 233.27 213.263 232.444 213.478 231.558L214.121 231.797C213.891 232.91 213.394 233.953 212.673 234.835C212.29 235.26 211.816 235.593 211.284 235.808C210.753 236.023 210.179 236.115 209.607 236.077C208.945 236.093 208.286 235.995 207.657 235.79C207.151 235.605 206.687 235.321 206.294 234.954C205.791 234.433 205.435 233.789 205.263 233.088C205.062 232.137 204.972 231.167 204.994 230.197V218.793H201.879V218.091H205.029V213.151C205.695 213.134 206.358 213.07 207.014 212.961C207.59 212.865 208.152 212.7 208.689 212.47Z" fill="white"/>
<path d="M219.596 235.846C218.742 235.868 217.896 235.682 217.131 235.305C216.481 234.97 215.947 234.45 215.598 233.811C215.245 233.14 215.068 232.392 215.082 231.635C215.047 230.771 215.295 229.919 215.789 229.207C216.25 228.574 216.852 228.056 217.548 227.691C218.281 227.299 219.05 226.975 219.843 226.723L222.132 225.979C222.761 225.783 223.36 225.502 223.912 225.144C224.129 225.013 224.308 224.828 224.432 224.608C224.556 224.388 224.62 224.14 224.619 223.888V221.579C224.647 220.904 224.511 220.233 224.223 219.621C223.995 219.17 223.623 218.807 223.164 218.59C222.662 218.374 222.12 218.268 221.574 218.281C221.009 218.288 220.448 218.361 219.9 218.498C219.345 218.625 218.848 218.931 218.487 219.369C218.979 219.496 219.417 219.776 219.737 220.169C220.076 220.584 220.252 221.108 220.232 221.642C220.246 221.922 220.197 222.202 220.089 222.461C219.98 222.719 219.814 222.95 219.603 223.137C219.16 223.509 218.594 223.704 218.014 223.684C217.714 223.703 217.413 223.649 217.139 223.527C216.864 223.405 216.624 223.218 216.439 222.983C216.094 222.542 215.912 221.997 215.923 221.439C215.899 220.902 216.064 220.373 216.389 219.944C216.734 219.523 217.141 219.156 217.597 218.856C218.255 218.45 218.969 218.14 219.716 217.937C220.648 217.68 221.611 217.555 222.577 217.565C223.436 217.552 224.292 217.661 225.12 217.888C225.797 218.078 226.414 218.435 226.914 218.926C227.485 219.445 227.879 220.127 228.045 220.877C228.241 221.8 228.334 222.741 228.32 223.684V233.137C228.288 233.551 228.363 233.967 228.539 234.344C228.615 234.46 228.721 234.553 228.845 234.616C228.968 234.679 229.107 234.708 229.246 234.702C229.492 234.706 229.736 234.645 229.952 234.526C230.222 234.378 230.479 234.209 230.722 234.021L231.061 234.597C230.615 234.96 230.126 235.269 229.606 235.516C229.018 235.759 228.384 235.874 227.748 235.853C227.137 235.877 226.528 235.762 225.968 235.516C225.53 235.307 225.175 234.958 224.958 234.526C224.725 234.028 224.614 233.482 224.633 232.933C224.108 233.814 223.382 234.559 222.514 235.109C221.631 235.624 220.619 235.88 219.596 235.846ZM221.242 234.218C221.882 234.217 222.507 234.026 223.036 233.67C223.662 233.24 224.191 232.685 224.59 232.042V225.277C224.303 225.67 223.929 225.992 223.496 226.218C223.015 226.477 222.507 226.744 221.956 227.011C221.414 227.281 220.894 227.593 220.402 227.944C219.905 228.302 219.49 228.761 219.187 229.291C218.839 229.937 218.673 230.665 218.706 231.397C218.665 232.162 218.917 232.914 219.413 233.502C219.648 233.744 219.934 233.933 220.249 234.057C220.565 234.18 220.903 234.235 221.242 234.218Z" fill="white"/>
<path d="M237.997 208.969V232.435C237.954 232.779 237.982 233.129 238.079 233.462C238.176 233.795 238.341 234.104 238.562 234.372C239.111 234.762 239.783 234.944 240.455 234.885V235.586L238.612 235.523C237.806 235.488 236.987 235.474 236.168 235.474C235.348 235.474 234.522 235.474 233.688 235.523L231.823 235.607V234.906C232.498 234.967 233.172 234.785 233.723 234.393C233.944 234.125 234.107 233.815 234.204 233.482C234.301 233.149 234.33 232.8 234.289 232.456V213.046C234.347 212.259 234.167 211.472 233.773 210.786C233.53 210.521 233.225 210.318 232.885 210.196C232.546 210.074 232.181 210.035 231.823 210.085V209.383C232.53 209.446 233.236 209.481 233.942 209.481C234.651 209.484 235.358 209.444 236.062 209.362C236.717 209.285 237.364 209.153 237.997 208.969Z" fill="white"/>
<path d="M258.582 211.144C259.525 211.104 260.467 211.242 261.358 211.551C261.941 211.797 262.501 212.092 263.032 212.435C263.307 212.597 263.526 212.716 263.696 212.793C263.85 212.867 264.019 212.908 264.19 212.912C264.303 212.911 264.412 212.875 264.502 212.808C264.593 212.741 264.659 212.647 264.692 212.54C264.817 212.176 264.903 211.8 264.946 211.418H265.73C265.73 211.825 265.681 212.309 265.646 212.863C265.61 213.418 265.589 214.147 265.575 215.053C265.561 215.958 265.575 217.158 265.575 218.618H264.748C264.685 217.511 264.447 216.422 264.042 215.39C263.653 214.398 263.016 213.521 262.191 212.842C261.308 212.164 260.213 211.816 259.097 211.86C258.035 211.821 256.999 212.194 256.208 212.898C255.829 213.243 255.53 213.666 255.332 214.138C255.135 214.609 255.043 215.118 255.064 215.628C255.03 216.52 255.294 217.398 255.813 218.126C256.391 218.862 257.091 219.496 257.882 220C258.758 220.575 259.761 221.214 260.877 221.916C261.994 222.618 263.039 223.361 263.95 224.07C264.808 224.721 265.538 225.522 266.105 226.435C266.646 227.386 266.91 228.467 266.868 229.558C266.921 230.856 266.554 232.137 265.822 233.214C265.122 234.183 264.155 234.93 263.039 235.368C261.819 235.851 260.516 236.089 259.203 236.07C258.173 236.105 257.143 235.968 256.159 235.663C255.499 235.43 254.859 235.146 254.244 234.814C253.905 234.56 253.507 234.396 253.086 234.337C252.974 234.337 252.865 234.374 252.776 234.441C252.687 234.508 252.622 234.602 252.591 234.709C252.46 235.071 252.372 235.448 252.33 235.832H251.546C251.588 235.336 251.617 234.753 251.631 234.084C251.631 233.383 251.631 232.533 251.631 231.453C251.631 230.372 251.631 228.99 251.631 227.34H252.422C252.497 228.681 252.756 230.006 253.192 231.277C253.553 232.417 254.225 233.435 255.134 234.218C255.937 234.805 256.878 235.178 257.868 235.301C258.857 235.424 259.862 235.292 260.786 234.919C261.447 234.618 262.005 234.13 262.389 233.516C262.805 232.761 263.019 231.913 263.01 231.053C263.001 230.193 262.77 229.35 262.34 228.604C261.845 227.849 261.221 227.186 260.496 226.646C259.61 225.984 258.69 225.368 257.741 224.8C256.667 224.122 255.664 223.441 254.732 222.758C253.834 222.12 253.073 221.311 252.492 220.379C251.914 219.402 251.622 218.284 251.652 217.151C251.635 215.934 252.017 214.744 252.74 213.761C253.383 212.884 254.258 212.202 255.269 211.79C256.319 211.359 257.445 211.14 258.582 211.144Z" fill="white"/>
<path d="M275.408 212.47V218.084H280.127V218.786H275.408V232.119C275.343 232.816 275.525 233.514 275.924 234.091C276.11 234.29 276.339 234.446 276.593 234.546C276.847 234.647 277.12 234.691 277.393 234.674C277.693 234.672 277.988 234.609 278.262 234.489C278.536 234.368 278.781 234.192 278.983 233.972C279.57 233.271 279.986 232.445 280.198 231.558L280.848 231.797C280.615 232.911 280.116 233.953 279.392 234.835C279.012 235.26 278.538 235.593 278.008 235.809C277.478 236.024 276.905 236.116 276.334 236.077C275.672 236.094 275.012 235.997 274.384 235.79C273.876 235.605 273.41 235.321 273.014 234.954C272.513 234.433 272.159 233.789 271.989 233.088C271.782 232.138 271.69 231.168 271.714 230.197V218.793H268.57V218.091H271.714V213.151C272.379 213.134 273.042 213.071 273.699 212.961C274.287 212.869 274.861 212.704 275.408 212.47Z" fill="white"/>
<path d="M297.54 217.698V231.93C297.48 232.719 297.665 233.508 298.07 234.189C298.31 234.452 298.611 234.653 298.947 234.775C299.283 234.898 299.643 234.937 299.998 234.891V235.593C299.292 235.523 298.585 235.495 297.879 235.495C297.171 235.492 296.464 235.525 295.76 235.593C295.122 235.652 294.492 235.776 293.881 235.965V232.267C293.434 233.469 292.6 234.491 291.507 235.172C290.536 235.736 289.432 236.034 288.307 236.035C287.572 236.054 286.841 235.933 286.153 235.677C285.603 235.47 285.103 235.152 284.683 234.744C284.247 234.247 283.952 233.644 283.829 232.996C283.651 232.107 283.57 231.201 283.588 230.295V221.733C283.645 220.946 283.466 220.16 283.073 219.474C282.83 219.207 282.526 219.004 282.186 218.882C281.846 218.759 281.481 218.722 281.123 218.772V218.07C281.829 218.14 282.536 218.168 283.242 218.168C283.962 218.171 284.681 218.134 285.397 218.056C286.033 217.981 286.663 217.862 287.283 217.698V231.284C287.278 231.888 287.322 232.491 287.417 233.088C287.48 233.579 287.709 234.034 288.067 234.379C288.534 234.736 289.119 234.907 289.706 234.856C290.471 234.863 291.217 234.616 291.825 234.154C292.478 233.643 292.99 232.977 293.315 232.218C293.688 231.348 293.873 230.411 293.859 229.467V221.782C293.92 220.995 293.74 220.208 293.344 219.523C293.101 219.256 292.797 219.053 292.457 218.931C292.117 218.808 291.752 218.771 291.394 218.821V218.119C292.1 218.189 292.807 218.218 293.513 218.218C294.233 218.22 294.952 218.183 295.668 218.105C296.301 218.013 296.926 217.877 297.54 217.698Z" fill="white"/>
<path d="M309.959 217.6C310.916 217.591 311.861 217.812 312.714 218.246C313.138 218.474 313.511 218.784 313.813 219.158C314.115 219.531 314.339 219.961 314.473 220.421L314.063 220.793C313.807 220.058 313.309 219.43 312.65 219.011C312.011 218.629 311.276 218.434 310.531 218.449C309.231 218.449 308.171 219.135 307.352 220.506C306.533 221.909 306.13 224.014 306.158 226.821C306.121 228.37 306.28 229.916 306.632 231.425C306.843 232.417 307.333 233.329 308.044 234.056C308.664 234.62 309.479 234.925 310.319 234.906C310.782 234.911 311.242 234.818 311.666 234.634C312.091 234.451 312.472 234.179 312.784 233.839C313.563 232.936 314.014 231.799 314.063 230.611L314.374 231.313C314.245 232.647 313.665 233.899 312.728 234.863C312.258 235.284 311.709 235.609 311.113 235.818C310.516 236.028 309.884 236.118 309.252 236.085C307.954 236.109 306.676 235.761 305.572 235.081C304.452 234.343 303.597 233.272 303.128 232.021C302.499 230.361 302.204 228.594 302.259 226.821C302.196 225.049 302.555 223.287 303.304 221.678C303.906 220.401 304.875 219.329 306.088 218.597C307.264 217.925 308.602 217.581 309.959 217.6ZM317.658 208.969V231.902C317.598 232.691 317.783 233.48 318.188 234.162C318.425 234.431 318.725 234.638 319.061 234.767C319.397 234.895 319.759 234.94 320.117 234.899V235.6C319.41 235.537 318.704 235.502 317.997 235.502C317.291 235.502 316.5 235.537 315.829 235.6C315.196 235.662 314.572 235.787 313.964 235.972V213.046C314.022 212.257 313.837 211.469 313.434 210.786C313.191 210.525 312.888 210.325 312.552 210.203C312.215 210.081 311.854 210.04 311.499 210.085V209.383C312.205 209.446 312.911 209.481 313.618 209.481C314.338 209.485 315.057 209.445 315.772 209.362C316.408 209.282 317.037 209.15 317.651 208.969H317.658Z" fill="white"/>
<path d="M327.872 217.699V232.435C327.831 232.779 327.86 233.128 327.957 233.461C328.054 233.794 328.217 234.104 328.438 234.372C328.989 234.764 329.663 234.946 330.338 234.885V235.586L328.544 235.502C327.731 235.467 326.905 235.453 326.064 235.453C325.223 235.453 324.411 235.453 323.585 235.502L321.72 235.586V234.885C322.392 234.944 323.064 234.762 323.613 234.372C323.834 234.104 323.999 233.795 324.096 233.462C324.193 233.129 324.221 232.779 324.178 232.435V221.769C324.236 220.982 324.059 220.196 323.669 219.509C323.426 219.244 323.122 219.041 322.782 218.919C322.442 218.797 322.078 218.758 321.72 218.807V218.106C322.426 218.176 323.133 218.204 323.839 218.204C324.563 218.208 325.287 218.17 326.008 218.092C326.638 218.004 327.261 217.873 327.872 217.699ZM325.824 209.509C326.479 209.488 327.117 209.725 327.597 210.169C327.824 210.38 328.005 210.636 328.129 210.919C328.253 211.203 328.317 211.509 328.317 211.818C328.317 212.127 328.253 212.433 328.129 212.717C328.005 213 327.824 213.256 327.597 213.467C327.117 213.911 326.479 214.148 325.824 214.127C325.167 214.146 324.527 213.91 324.044 213.467C323.817 213.256 323.636 213 323.512 212.717C323.388 212.433 323.324 212.127 323.324 211.818C323.324 211.509 323.388 211.203 323.512 210.919C323.636 210.636 323.817 210.38 324.044 210.169C324.529 209.729 325.168 209.494 325.824 209.516V209.509Z" fill="white"/>
<path d="M340.532 217.6C341.938 217.578 343.327 217.906 344.572 218.555C345.798 219.242 346.784 220.285 347.398 221.544C348.17 223.214 348.533 225.041 348.457 226.877C348.534 228.709 348.171 230.532 347.398 232.197C346.781 233.445 345.795 234.476 344.572 235.151C343.314 235.791 341.916 236.112 340.503 236.084C339.089 236.107 337.69 235.786 336.427 235.151C335.196 234.486 334.207 233.452 333.602 232.197C332.841 230.529 332.482 228.707 332.556 226.877C332.483 225.043 332.841 223.217 333.602 221.544C334.204 220.277 335.193 219.231 336.427 218.555C337.694 217.901 339.105 217.573 340.532 217.6ZM340.532 218.302C339.345 218.302 338.375 218.976 337.621 220.323C336.868 221.67 336.491 223.862 336.491 226.898C336.491 229.937 336.865 232.112 337.621 233.439C338.377 234.765 339.345 235.425 340.532 235.425C341.718 235.425 342.651 234.765 343.421 233.439C344.191 232.112 344.565 229.93 344.565 226.898C344.565 223.867 344.184 221.67 343.421 220.323C342.658 218.976 341.69 218.281 340.532 218.281V218.302Z" fill="white"/>
</svg>
