<svg width="50" height="51" viewBox="0 0 50 51" fill="none" xmlns="http://www.w3.org/2000/svg">
<rect y="0.655273" width="50" height="50" rx="25" fill="black"/>
<path d="M22.0455 24.9142L24.263 22.6814L22.536 20.9389L21.934 21.5409C21.7955 21.6794 21.624 21.7528 21.4195 21.7612C21.2152 21.7695 21.0355 21.6961 20.8803 21.5409C20.7251 21.3857 20.6475 21.2076 20.6475 21.0064C20.6475 20.8051 20.7251 20.6268 20.8803 20.4717L21.4668 19.8852L19.9283 18.3467L17.6955 20.5794L22.0455 24.9142ZM30.063 32.9467L32.2955 30.7139L30.757 29.1754L30.1553 29.7622C30.0065 29.9108 29.8324 29.9867 29.633 29.9899C29.4337 29.9931 29.2565 29.9172 29.1013 29.7622C28.9463 29.607 28.8688 29.4313 28.8688 29.2352C28.8688 29.039 28.9463 28.8633 29.1013 28.7082L29.688 28.1064L27.9553 26.3889L25.7378 28.6064L30.063 32.9467ZM17.4958 34.0602C17.238 34.0602 17.0229 33.9739 16.8505 33.8014C16.678 33.6291 16.5918 33.414 16.5918 33.1562V30.7352C16.5918 30.6147 16.6136 30.4999 16.6573 30.3909C16.7008 30.2819 16.7694 30.1807 16.863 30.0872L20.9765 25.9737L16.4398 21.4274C16.2078 21.1954 16.0918 20.9127 16.0918 20.5794C16.0918 20.2461 16.2078 19.9634 16.4398 19.7314L19.0803 17.0909C19.3123 16.8589 19.595 16.7455 19.9283 16.7507C20.2616 16.7557 20.5443 16.8742 20.7763 17.1064L25.3475 21.6524L29.4688 17.5159C29.624 17.3607 29.7945 17.246 29.9803 17.1717C30.1661 17.0973 30.3604 17.0602 30.563 17.0602C30.7655 17.0602 30.9597 17.0973 31.1455 17.1717C31.3315 17.246 31.502 17.3607 31.657 17.5159L33.136 19.0392C33.2912 19.1942 33.4043 19.3647 33.4753 19.5507C33.5465 19.7365 33.582 19.9307 33.582 20.1332C33.582 20.3358 33.5465 20.5259 33.4753 20.7034C33.4043 20.8809 33.2912 21.0472 33.136 21.2024L29.034 25.3294L33.561 29.8757C33.793 30.1077 33.909 30.3903 33.909 30.7237C33.909 31.057 33.793 31.3397 33.561 31.5717L30.9205 34.2122C30.6885 34.4442 30.4059 34.5602 30.0725 34.5602C29.7392 34.5602 29.4565 34.4442 29.2245 34.2122L24.6783 29.6754L20.5648 33.7889C20.4713 33.8826 20.37 33.9512 20.261 33.9947C20.152 34.0383 20.0373 34.0602 19.9168 34.0602H17.4958ZM18.0918 32.5602H19.6553L29.4648 22.7659L27.886 21.1872L18.0918 30.9967V32.5602ZM28.688 21.9794L27.886 21.1872L29.4648 22.7659L28.688 21.9794Z" fill="#00FFFF"/>
</svg>
