<svg width="117" height="60" viewBox="0 0 117 60" fill="none" xmlns="http://www.w3.org/2000/svg">
<g filter="url(#filter0_d_169_1152)">
<path d="M8.75418 20L5.62291 4.04089L20 11.9182L12.9181 13.9727L8.75418 20Z" fill="black"/>
<path d="M8.75418 20L5.62291 4.04089L20 11.9182L12.9181 13.9727L8.75418 20Z" stroke="white"/>
</g>
<g filter="url(#filter1_d_169_1152)">
<path d="M11 18C11 16.8954 11.8954 16 13 16H88C96.2843 16 103 22.7157 103 31C103 39.2843 96.2843 46 88 46H27C18.1634 46 11 38.8366 11 30V18Z" fill="#84006E" fill-opacity="0.7" shape-rendering="crispEdges"/>
<path d="M13 17H88C95.732 17 102 23.268 102 31C102 38.732 95.732 45 88 45H27C18.7157 45 12 38.2843 12 30V18C12 17.4477 12.4477 17 13 17Z" stroke="#84006E" stroke-width="2" shape-rendering="crispEdges"/>
<path d="M26.1534 35H23.799V27.7273H26.228C26.9406 27.7273 27.5526 27.8729 28.0639 28.1641C28.5753 28.4529 28.9671 28.8684 29.2393 29.4105C29.514 29.9503 29.6513 30.5978 29.6513 31.353C29.6513 32.1106 29.5128 32.7616 29.2358 33.3061C28.9612 33.8506 28.5634 34.2696 28.0426 34.5632C27.5218 34.8544 26.892 35 26.1534 35ZM24.8963 34.0412H26.093C26.647 34.0412 27.1075 33.937 27.4744 33.7287C27.8414 33.518 28.116 33.2138 28.2983 32.8161C28.4806 32.416 28.5717 31.9283 28.5717 31.353C28.5717 30.7824 28.4806 30.2983 28.2983 29.9006C28.1184 29.5028 27.8497 29.201 27.4922 28.995C27.1347 28.7891 26.6908 28.6861 26.1605 28.6861H24.8963V34.0412ZM33.2814 35.1101C32.744 35.1101 32.2812 34.9953 31.8929 34.7656C31.507 34.5336 31.2087 34.2081 30.998 33.7891C30.7897 33.3677 30.6855 32.8741 30.6855 32.3082C30.6855 31.7495 30.7897 31.2571 30.998 30.831C31.2087 30.4048 31.5023 30.0722 31.8787 29.8331C32.2575 29.594 32.7002 29.4744 33.2069 29.4744C33.5146 29.4744 33.8129 29.5253 34.1017 29.6271C34.3906 29.7289 34.6498 29.8887 34.8794 30.1065C35.1091 30.3243 35.2902 30.6072 35.4228 30.9553C35.5553 31.3009 35.6216 31.7211 35.6216 32.2159V32.5923H31.2857V31.7969H34.5811C34.5811 31.5175 34.5243 31.2701 34.4107 31.0547C34.2971 30.8369 34.1373 30.6652 33.9313 30.5398C33.7277 30.4143 33.4886 30.3516 33.214 30.3516C32.9157 30.3516 32.6552 30.425 32.4327 30.5717C32.2125 30.7161 32.0421 30.9055 31.9213 31.1399C31.803 31.3719 31.7438 31.6241 31.7438 31.8963V32.5178C31.7438 32.8823 31.8077 33.1925 31.9355 33.4482C32.0658 33.7038 32.2469 33.8991 32.4789 34.0341C32.7109 34.1667 32.9819 34.233 33.2921 34.233C33.4933 34.233 33.6768 34.2045 33.8425 34.1477C34.0082 34.0885 34.1515 34.0009 34.2722 33.8849C34.3929 33.7689 34.4853 33.6257 34.5492 33.4553L35.5542 33.6364C35.4737 33.9323 35.3292 34.1915 35.1209 34.4141C34.915 34.6342 34.6557 34.8059 34.3432 34.929C34.0331 35.0497 33.6792 35.1101 33.2814 35.1101ZM41.3097 29.5455L39.3317 35H38.1953L36.2138 29.5455H37.3537L38.7351 33.7429H38.7919L40.1697 29.5455H41.3097ZM44.4728 35.1101C43.9354 35.1101 43.4726 34.9953 43.0843 34.7656C42.6984 34.5336 42.4002 34.2081 42.1895 33.7891C41.9811 33.3677 41.877 32.8741 41.877 32.3082C41.877 31.7495 41.9811 31.2571 42.1895 30.831C42.4002 30.4048 42.6937 30.0722 43.0701 29.8331C43.4489 29.594 43.8916 29.4744 44.3983 29.4744C44.706 29.4744 45.0043 29.5253 45.2931 29.6271C45.582 29.7289 45.8412 29.8887 46.0708 30.1065C46.3005 30.3243 46.4816 30.6072 46.6142 30.9553C46.7467 31.3009 46.813 31.7211 46.813 32.2159V32.5923H42.4771V31.7969H45.7725C45.7725 31.5175 45.7157 31.2701 45.6021 31.0547C45.4885 30.8369 45.3287 30.6652 45.1227 30.5398C44.9191 30.4143 44.68 30.3516 44.4054 30.3516C44.1071 30.3516 43.8467 30.425 43.6241 30.5717C43.4039 30.7161 43.2335 30.9055 43.1127 31.1399C42.9944 31.3719 42.9352 31.6241 42.9352 31.8963V32.5178C42.9352 32.8823 42.9991 33.1925 43.127 33.4482C43.2572 33.7038 43.4383 33.8991 43.6703 34.0341C43.9023 34.1667 44.1734 34.233 44.4835 34.233C44.6847 34.233 44.8682 34.2045 45.0339 34.1477C45.1996 34.0885 45.3429 34.0009 45.4636 33.8849C45.5843 33.7689 45.6767 33.6257 45.7406 33.4553L46.7456 33.6364C46.6651 33.9323 46.5207 34.1915 46.3123 34.4141C46.1064 34.6342 45.8471 34.8059 45.5346 34.929C45.2245 35.0497 44.8706 35.1101 44.4728 35.1101ZM49.0529 27.7273V35H47.9911V27.7273H49.0529ZM52.7789 35.1101C52.2676 35.1101 51.8213 34.9929 51.4402 34.7585C51.059 34.5241 50.7631 34.1963 50.5524 33.7749C50.3417 33.3535 50.2363 32.861 50.2363 32.2976C50.2363 31.7318 50.3417 31.237 50.5524 30.8132C50.7631 30.3894 51.059 30.0604 51.4402 29.826C51.8213 29.5916 52.2676 29.4744 52.7789 29.4744C53.2903 29.4744 53.7366 29.5916 54.1177 29.826C54.4989 30.0604 54.7948 30.3894 55.0055 30.8132C55.2162 31.237 55.3216 31.7318 55.3216 32.2976C55.3216 32.861 55.2162 33.3535 55.0055 33.7749C54.7948 34.1963 54.4989 34.5241 54.1177 34.7585C53.7366 34.9929 53.2903 35.1101 52.7789 35.1101ZM52.7825 34.2188C53.1139 34.2188 53.3886 34.1312 53.6064 33.956C53.8242 33.7808 53.9851 33.5476 54.0893 33.2564C54.1958 32.9652 54.2491 32.6444 54.2491 32.294C54.2491 31.946 54.1958 31.6264 54.0893 31.3352C53.9851 31.0417 53.8242 30.8061 53.6064 30.6286C53.3886 30.451 53.1139 30.3622 52.7825 30.3622C52.4487 30.3622 52.1717 30.451 51.9515 30.6286C51.7337 30.8061 51.5716 31.0417 51.465 31.3352C51.3609 31.6264 51.3088 31.946 51.3088 32.294C51.3088 32.6444 51.3609 32.9652 51.465 33.2564C51.5716 33.5476 51.7337 33.7808 51.9515 33.956C52.1717 34.1312 52.4487 34.2188 52.7825 34.2188ZM56.5067 37.0455V29.5455H57.5437V30.4297H57.6325C57.694 30.3161 57.7828 30.1847 57.8988 30.0355C58.0148 29.8864 58.1758 29.7562 58.3817 29.6449C58.5877 29.5312 58.86 29.4744 59.1985 29.4744C59.6388 29.4744 60.0318 29.5857 60.3775 29.8082C60.7231 30.0308 60.9942 30.3516 61.1907 30.7706C61.3896 31.1896 61.489 31.6939 61.489 32.2834C61.489 32.8729 61.3907 33.3783 61.1942 33.7997C60.9978 34.2187 60.7279 34.5419 60.3846 34.7692C60.0413 34.9941 59.6495 35.1065 59.2092 35.1065C58.8777 35.1065 58.6067 35.0509 58.396 34.9396C58.1876 34.8284 58.0243 34.6982 57.9059 34.549C57.7875 34.3999 57.6964 34.2673 57.6325 34.1513H57.5685V37.0455H56.5067ZM57.5472 32.2727C57.5472 32.6562 57.6029 32.9924 57.7141 33.2812C57.8254 33.5701 57.9864 33.7962 58.1971 33.9595C58.4078 34.1205 58.6658 34.201 58.9712 34.201C59.2885 34.201 59.5536 34.117 59.7667 33.9489C59.9798 33.7784 60.1407 33.5476 60.2496 33.2564C60.3609 32.9652 60.4165 32.6373 60.4165 32.2727C60.4165 31.9129 60.3621 31.5897 60.2532 31.3033C60.1467 31.0168 59.9857 30.7907 59.7702 30.625C59.5572 30.4593 59.2908 30.3764 58.9712 30.3764C58.6635 30.3764 58.4031 30.4557 58.19 30.6143C57.9793 30.773 57.8195 30.9943 57.7106 31.2784C57.6017 31.5625 57.5472 31.8939 57.5472 32.2727ZM62.6786 35V29.5455H63.6978V30.4332H63.7653C63.8789 30.1326 64.0647 29.8982 64.3228 29.7301C64.5808 29.5597 64.8898 29.4744 65.2496 29.4744C65.6142 29.4744 65.9196 29.5597 66.1658 29.7301C66.4144 29.9006 66.5979 30.1349 66.7163 30.4332H66.7731C66.9033 30.142 67.1104 29.91 67.3945 29.7372C67.6786 29.562 68.0172 29.4744 68.4102 29.4744C68.9049 29.4744 69.3086 29.6295 69.6211 29.9396C69.936 30.2498 70.0934 30.7173 70.0934 31.3423V35H69.0316V31.4418C69.0316 31.0724 68.931 30.8049 68.7298 30.6392C68.5285 30.4735 68.2882 30.3906 68.0089 30.3906C67.6632 30.3906 67.3945 30.4972 67.2028 30.7102C67.011 30.9209 66.9151 31.192 66.9151 31.5234V35H65.8569V31.3743C65.8569 31.0784 65.7646 30.8404 65.5799 30.6605C65.3952 30.4806 65.1549 30.3906 64.859 30.3906C64.6578 30.3906 64.4719 30.4439 64.3015 30.5504C64.1334 30.6546 63.9973 30.8002 63.8931 30.9872C63.7913 31.1742 63.7404 31.3909 63.7404 31.6371V35H62.6786ZM73.8674 35.1101C73.33 35.1101 72.8671 34.9953 72.4789 34.7656C72.093 34.5336 71.7947 34.2081 71.584 33.7891C71.3757 33.3677 71.2715 32.8741 71.2715 32.3082C71.2715 31.7495 71.3757 31.2571 71.584 30.831C71.7947 30.4048 72.0882 30.0722 72.4647 29.8331C72.8435 29.594 73.2862 29.4744 73.7928 29.4744C74.1006 29.4744 74.3989 29.5253 74.6877 29.6271C74.9765 29.7289 75.2357 29.8887 75.4654 30.1065C75.695 30.3243 75.8761 30.6072 76.0087 30.9553C76.1413 31.3009 76.2076 31.7211 76.2076 32.2159V32.5923H71.8716V31.7969H75.1671C75.1671 31.5175 75.1103 31.2701 74.9966 31.0547C74.883 30.8369 74.7232 30.6652 74.5172 30.5398C74.3136 30.4143 74.0745 30.3516 73.7999 30.3516C73.5016 30.3516 73.2412 30.425 73.0186 30.5717C72.7985 30.7161 72.628 30.9055 72.5073 31.1399C72.3889 31.3719 72.3297 31.6241 72.3297 31.8963V32.5178C72.3297 32.8823 72.3936 33.1925 72.5215 33.4482C72.6517 33.7038 72.8328 33.8991 73.0648 34.0341C73.2968 34.1667 73.5679 34.233 73.878 34.233C74.0792 34.233 74.2627 34.2045 74.4284 34.1477C74.5942 34.0885 74.7374 34.0009 74.8581 33.8849C74.9789 33.7689 75.0712 33.6257 75.1351 33.4553L76.1401 33.6364C76.0596 33.9323 75.9152 34.1915 75.7069 34.4141C75.5009 34.6342 75.2417 34.8059 74.9292 34.929C74.619 35.0497 74.2651 35.1101 73.8674 35.1101ZM78.4474 31.7614V35H77.3857V29.5455H78.4048V30.4332H78.4723C78.5978 30.1444 78.7943 29.9124 79.0618 29.7372C79.3317 29.562 79.6714 29.4744 80.081 29.4744C80.4527 29.4744 80.7782 29.5526 81.0575 29.7088C81.3369 29.8627 81.5535 30.0923 81.7074 30.3977C81.8613 30.7031 81.9382 31.0807 81.9382 31.5305V35H80.8764V31.6584C80.8764 31.263 80.7734 30.9541 80.5675 30.7315C80.3615 30.5066 80.0786 30.3942 79.7188 30.3942C79.4725 30.3942 79.2536 30.4474 79.0618 30.554C78.8724 30.6605 78.7221 30.8168 78.6108 31.0227C78.5019 31.2263 78.4474 31.4725 78.4474 31.7614ZM85.9084 29.5455V30.3977H82.929V29.5455H85.9084ZM83.728 28.2386H84.7898V33.3984C84.7898 33.6044 84.8205 33.7595 84.8821 33.8636C84.9437 33.9654 85.023 34.0353 85.12 34.0732C85.2195 34.1087 85.3272 34.1264 85.4432 34.1264C85.5284 34.1264 85.603 34.1205 85.6669 34.1087C85.7308 34.0968 85.7805 34.0874 85.8161 34.0803L86.0078 34.9574C85.9463 34.9811 85.8587 35.0047 85.745 35.0284C85.6314 35.0545 85.4893 35.0687 85.3189 35.071C85.0395 35.0758 84.7791 35.026 84.5376 34.9219C84.2962 34.8177 84.1009 34.6567 83.9517 34.4389C83.8026 34.2211 83.728 33.9477 83.728 33.6186V28.2386Z" fill="white"/>
</g>
<defs>
<filter id="filter0_d_169_1152" x="2.9248" y="2.09058" width="20.3721" height="22.1733" filterUnits="userSpaceOnUse" color-interpolation-filters="sRGB">
<feFlood flood-opacity="0" result="BackgroundImageFix"/>
<feColorMatrix in="SourceAlpha" type="matrix" values="0 0 0 0 0 0 0 0 0 0 0 0 0 0 0 0 0 0 127 0" result="hardAlpha"/>
<feOffset dy="1"/>
<feGaussianBlur stdDeviation="1"/>
<feComposite in2="hardAlpha" operator="out"/>
<feColorMatrix type="matrix" values="0 0 0 0 0 0 0 0 0 0 0 0 0 0 0 0 0 0 0.25 0"/>
<feBlend mode="normal" in2="BackgroundImageFix" result="effect1_dropShadow_169_1152"/>
<feBlend mode="normal" in="SourceGraphic" in2="effect1_dropShadow_169_1152" result="shape"/>
</filter>
<filter id="filter1_d_169_1152" x="5" y="10" width="112" height="50" filterUnits="userSpaceOnUse" color-interpolation-filters="sRGB">
<feFlood flood-opacity="0" result="BackgroundImageFix"/>
<feColorMatrix in="SourceAlpha" type="matrix" values="0 0 0 0 0 0 0 0 0 0 0 0 0 0 0 0 0 0 127 0" result="hardAlpha"/>
<feOffset dx="4" dy="4"/>
<feGaussianBlur stdDeviation="5"/>
<feComposite in2="hardAlpha" operator="out"/>
<feColorMatrix type="matrix" values="0 0 0 0 0.933333 0 0 0 0 0.27451 0 0 0 0 0.737255 0 0 0 0.16 0"/>
<feBlend mode="normal" in2="BackgroundImageFix" result="effect1_dropShadow_169_1152"/>
<feBlend mode="normal" in="SourceGraphic" in2="effect1_dropShadow_169_1152" result="shape"/>
</filter>
</defs>
</svg>
