<svg width="50" height="51" viewBox="0 0 50 51" fill="none" xmlns="http://www.w3.org/2000/svg">
<rect y="0.655273" width="50" height="50" rx="25" fill="black"/>
<path d="M20.4087 25.263C20.6805 24.7195 20.9702 24.1958 21.2779 23.6918C21.5856 23.1879 21.9247 22.6905 22.2952 22.1995L20.8279 21.9053C20.7766 21.8924 20.7269 21.894 20.6789 21.91C20.6307 21.9262 20.5874 21.9534 20.5489 21.9918L18.2854 24.2553C18.2662 24.2746 18.2598 24.2971 18.2662 24.3228C18.2727 24.3483 18.2887 24.3674 18.3144 24.3803L20.4087 25.263ZM32.1604 18.09C30.8079 18.1618 29.5076 18.5019 28.2594 19.1103C27.0114 19.7186 25.8586 20.5516 24.8009 21.6093C24.0816 22.3284 23.4469 23.088 22.8969 23.888C22.3469 24.688 21.9162 25.4604 21.6047 26.2053L24.4452 29.0303C25.19 28.7188 25.964 28.288 26.7672 27.738C27.5703 27.188 28.3316 26.5534 29.0509 25.8343C30.1086 24.7766 30.9416 23.6278 31.5499 22.388C32.1582 21.1483 32.4983 19.8522 32.5702 18.4995C32.5702 18.4457 32.5624 18.3934 32.5469 18.3428C32.5316 18.2921 32.5022 18.245 32.4587 18.2015C32.415 18.1578 32.3678 18.1283 32.3172 18.113C32.2665 18.0977 32.2142 18.09 32.1604 18.09ZM26.7374 23.9073C26.3989 23.5688 26.2297 23.1573 26.2297 22.6728C26.2297 22.1881 26.3989 21.7765 26.7374 21.438C27.0759 21.0995 27.49 20.9303 27.9797 20.9303C28.4695 20.9303 28.8836 21.0995 29.2219 21.438C29.5604 21.7765 29.7297 22.1881 29.7297 22.6728C29.7297 23.1573 29.5604 23.5688 29.2219 23.9073C28.8836 24.2458 28.4695 24.415 27.9797 24.415C27.49 24.415 27.0759 24.2458 26.7374 23.9073ZM25.3874 30.236L26.2702 32.3458C26.283 32.3714 26.3022 32.3858 26.3277 32.389C26.3533 32.3922 26.3758 32.3842 26.3952 32.365L28.6587 30.111C28.697 30.0725 28.7242 30.0293 28.7404 29.9813C28.7564 29.9331 28.758 29.8834 28.7452 29.8323L28.4509 28.365C27.9599 28.7355 27.4625 29.072 26.9587 29.3745C26.4547 29.677 25.9309 29.9642 25.3874 30.236ZM33.9989 17.617C34.0617 19.367 33.7537 21.0294 33.0749 22.6043C32.3961 24.1793 31.3515 25.6719 29.9412 27.0823C29.9092 27.1143 29.8787 27.1431 29.8499 27.1688C29.8211 27.1944 29.7907 27.2233 29.7587 27.2553L30.2202 29.5283C30.2803 29.8296 30.2652 30.1226 30.1749 30.4073C30.0846 30.6918 29.9323 30.9411 29.7182 31.1553L26.7509 34.1225C26.5266 34.3468 26.2554 34.4315 25.9374 34.3765C25.6194 34.3213 25.4002 34.1431 25.2797 33.8418L23.9182 30.6418L20.0087 26.7225L16.8087 25.361C16.5073 25.2405 16.3282 25.0213 16.2712 24.7035C16.2142 24.3855 16.2978 24.1143 16.5222 23.89L19.4894 20.9228C19.7036 20.7086 19.9555 20.5579 20.2452 20.4708C20.5348 20.3836 20.8303 20.3701 21.1317 20.4303L23.4047 20.892C23.4368 20.8598 23.4641 20.8309 23.4864 20.8053C23.5089 20.7798 23.5362 20.7509 23.5682 20.7188C24.9785 19.3086 26.4712 18.2624 28.0462 17.5803C29.6212 16.8983 31.2837 16.5887 33.0337 16.6515C33.1542 16.6618 33.273 16.6913 33.3902 16.74C33.5075 16.7887 33.613 16.8598 33.7067 16.9535C33.8002 17.047 33.8697 17.1508 33.9152 17.265C33.9607 17.379 33.9886 17.4963 33.9989 17.617ZM17.6279 29.4843C18.1151 28.9971 18.709 28.7525 19.4097 28.7505C20.1102 28.7487 20.704 28.9913 21.1912 29.4785C21.6783 29.9657 21.9194 30.5595 21.9144 31.26C21.9092 31.9607 21.6631 32.5546 21.1759 33.0418C20.4977 33.7199 19.6977 34.1324 18.7759 34.2793C17.8541 34.4261 16.9265 34.5553 15.9932 34.6668C16.1048 33.7271 16.2357 32.7979 16.3857 31.8793C16.5357 30.9608 16.9497 30.1624 17.6279 29.4843ZM18.6972 30.5475C18.4073 30.8373 18.2067 31.1823 18.0952 31.5823C17.9837 31.9823 17.8977 32.3938 17.8374 32.8168C18.2606 32.7566 18.6722 32.6717 19.0722 32.562C19.4722 32.4523 19.817 32.2527 20.1067 31.963C20.3067 31.763 20.4118 31.5229 20.4222 31.2428C20.4323 30.9626 20.3374 30.7225 20.1374 30.5225C19.9374 30.3225 19.6973 30.2267 19.4172 30.235C19.1372 30.2433 18.8972 30.3475 18.6972 30.5475Z" fill="#00FFFF"/>
</svg>
