<svg width="130" height="60" viewBox="0 0 130 60" fill="none" xmlns="http://www.w3.org/2000/svg">
<g filter="url(#filter0_d_169_1157)">
<path d="M8.75418 20L5.62291 4.04089L20 11.9182L12.9181 13.9727L8.75418 20Z" fill="black"/>
<path d="M8.75418 20L5.62291 4.04089L20 11.9182L12.9181 13.9727L8.75418 20Z" stroke="white"/>
</g>
<g filter="url(#filter1_d_169_1157)">
<path d="M14 18C14 16.8954 14.8954 16 16 16H101C109.284 16 116 22.7157 116 31C116 39.2843 109.284 46 101 46H30C21.1634 46 14 38.8366 14 30V18Z" fill="#000791" fill-opacity="0.7" shape-rendering="crispEdges"/>
<path d="M16 17H101C108.732 17 115 23.268 115 31C115 38.732 108.732 45 101 45H30C21.7157 45 15 38.2843 15 30V18C15 17.4477 15.4477 17 16 17Z" stroke="#000791" stroke-width="2" shape-rendering="crispEdges"/>
<path d="M26.799 35V27.7273H29.3913C29.9571 27.7273 30.4259 27.8303 30.7976 28.0362C31.1693 28.2422 31.4474 28.5239 31.6321 28.8814C31.8168 29.2365 31.9091 29.6366 31.9091 30.0817C31.9091 30.5291 31.8156 30.9316 31.6286 31.2891C31.4439 31.6442 31.1645 31.9259 30.7905 32.1342C30.4188 32.3402 29.9512 32.4432 29.3878 32.4432H27.6051V31.5128H29.2884C29.6458 31.5128 29.9358 31.4512 30.1584 31.3281C30.3809 31.2027 30.5443 31.0322 30.6484 30.8168C30.7526 30.6013 30.8047 30.3563 30.8047 30.0817C30.8047 29.8071 30.7526 29.5632 30.6484 29.3501C30.5443 29.1371 30.3797 28.9702 30.1548 28.8494C29.9323 28.7287 29.6387 28.6683 29.2741 28.6683H27.8963V35H26.799ZM33.1103 35V29.5455H34.1365V30.4119H34.1934C34.2928 30.1184 34.468 29.8875 34.7189 29.7195C34.9722 29.549 35.2587 29.4638 35.5783 29.4638C35.6446 29.4638 35.7227 29.4661 35.8127 29.4709C35.905 29.4756 35.9772 29.4815 36.0293 29.4886V30.5043C35.9867 30.4924 35.9109 30.4794 35.802 30.4652C35.6931 30.4486 35.5842 30.4403 35.4753 30.4403C35.2244 30.4403 35.0007 30.4936 34.8042 30.6001C34.61 30.7043 34.4561 30.8499 34.3425 31.0369C34.2289 31.2216 34.1721 31.4323 34.1721 31.669V35H33.1103ZM39.0504 35.1101C38.5391 35.1101 38.0928 34.9929 37.7116 34.7585C37.3305 34.5241 37.0346 34.1963 36.8239 33.7749C36.6132 33.3535 36.5078 32.861 36.5078 32.2976C36.5078 31.7318 36.6132 31.237 36.8239 30.8132C37.0346 30.3894 37.3305 30.0604 37.7116 29.826C38.0928 29.5916 38.5391 29.4744 39.0504 29.4744C39.5618 29.4744 40.008 29.5916 40.3892 29.826C40.7704 30.0604 41.0663 30.3894 41.277 30.8132C41.4877 31.237 41.593 31.7318 41.593 32.2976C41.593 32.861 41.4877 33.3535 41.277 33.7749C41.0663 34.1963 40.7704 34.5241 40.3892 34.7585C40.008 34.9929 39.5618 35.1101 39.0504 35.1101ZM39.054 34.2188C39.3854 34.2188 39.66 34.1312 39.8778 33.956C40.0956 33.7808 40.2566 33.5476 40.3608 33.2564C40.4673 32.9652 40.5206 32.6444 40.5206 32.294C40.5206 31.946 40.4673 31.6264 40.3608 31.3352C40.2566 31.0417 40.0956 30.8061 39.8778 30.6286C39.66 30.451 39.3854 30.3622 39.054 30.3622C38.7202 30.3622 38.4432 30.451 38.223 30.6286C38.0052 30.8061 37.843 31.0417 37.7365 31.3352C37.6323 31.6264 37.5803 31.946 37.5803 32.294C37.5803 32.6444 37.6323 32.9652 37.7365 33.2564C37.843 33.5476 38.0052 33.7808 38.223 33.956C38.4432 34.1312 38.7202 34.2188 39.054 34.2188ZM44.8201 35.1065C44.3798 35.1065 43.9868 34.9941 43.6412 34.7692C43.2979 34.5419 43.028 34.2187 42.8315 33.7997C42.6374 33.3783 42.5403 32.8729 42.5403 32.2834C42.5403 31.6939 42.6386 31.1896 42.835 30.7706C43.0339 30.3516 43.3062 30.0308 43.6518 29.8082C43.9975 29.5857 44.3893 29.4744 44.8272 29.4744C45.1658 29.4744 45.438 29.5312 45.644 29.6449C45.8523 29.7562 46.0133 29.8864 46.127 30.0355C46.243 30.1847 46.3329 30.3161 46.3968 30.4297H46.4608V27.7273H47.5225V35H46.4856V34.1513H46.3968C46.3329 34.2673 46.2406 34.3999 46.1199 34.549C46.0015 34.6982 45.8381 34.8284 45.6298 34.9396C45.4215 35.0509 45.1516 35.1065 44.8201 35.1065ZM45.0545 34.201C45.3599 34.201 45.618 34.1205 45.8287 33.9595C46.0417 33.7962 46.2027 33.5701 46.3116 33.2812C46.4229 32.9924 46.4785 32.6562 46.4785 32.2727C46.4785 31.8939 46.4241 31.5625 46.3152 31.2784C46.2063 30.9943 46.0465 30.773 45.8358 30.6143C45.6251 30.4557 45.3646 30.3764 45.0545 30.3764C44.7349 30.3764 44.4686 30.4593 44.2555 30.625C44.0424 30.7907 43.8815 31.0168 43.7725 31.3033C43.666 31.5897 43.6127 31.9129 43.6127 32.2727C43.6127 32.6373 43.6672 32.9652 43.7761 33.2564C43.885 33.5476 44.046 33.7784 44.2591 33.9489C44.4745 34.117 44.7396 34.201 45.0545 34.201ZM52.4933 32.7379V29.5455H53.5586V35H52.5146V34.0554H52.4577C52.3323 34.3466 52.131 34.5893 51.854 34.7834C51.5794 34.9751 51.2373 35.071 50.8278 35.071C50.4774 35.071 50.1673 34.9941 49.8974 34.8402C49.6299 34.6839 49.4192 34.4531 49.2653 34.1477C49.1138 33.8423 49.038 33.4647 49.038 33.0149V29.5455H50.0998V32.8871C50.0998 33.2588 50.2028 33.5547 50.4087 33.7749C50.6147 33.995 50.8822 34.1051 51.2113 34.1051C51.4102 34.1051 51.6078 34.0554 51.8043 33.956C52.0032 33.8565 52.1677 33.7062 52.2979 33.505C52.4305 33.3037 52.4956 33.0481 52.4933 32.7379ZM57.2828 35.1101C56.7549 35.1101 56.3004 34.9905 55.9192 34.7514C55.5404 34.5099 55.2492 34.1773 55.0456 33.7536C54.842 33.3298 54.7402 32.8445 54.7402 32.2976C54.7402 31.7436 54.8444 31.2547 55.0527 30.831C55.2611 30.4048 55.5546 30.0722 55.9334 29.8331C56.3122 29.594 56.7585 29.4744 57.2722 29.4744C57.6865 29.4744 58.0558 29.5514 58.3801 29.7053C58.7045 29.8568 58.9661 30.0698 59.165 30.3445C59.3662 30.6191 59.4857 30.9399 59.5236 31.3068H58.4902C58.4334 31.0511 58.3032 30.831 58.0996 30.6463C57.8984 30.4616 57.6285 30.3693 57.29 30.3693C56.994 30.3693 56.7348 30.4474 56.5123 30.6037C56.2921 30.7576 56.1204 30.9777 55.9973 31.2642C55.8742 31.5483 55.8127 31.8845 55.8127 32.2727C55.8127 32.6705 55.873 33.0137 55.9938 33.3026C56.1145 33.5914 56.285 33.8151 56.5051 33.9737C56.7277 34.1323 56.9893 34.2116 57.29 34.2116C57.4912 34.2116 57.6735 34.175 57.8368 34.1016C58.0025 34.0258 58.141 33.9181 58.2523 33.7784C58.3659 33.6387 58.4453 33.4706 58.4902 33.2741H59.5236C59.4857 33.6269 59.3709 33.9418 59.1792 34.2188C58.9874 34.4957 58.7305 34.7135 58.4086 34.8722C58.089 35.0308 57.7137 35.1101 57.2828 35.1101ZM63.2053 29.5455V30.3977H60.2259V29.5455H63.2053ZM61.0249 28.2386H62.0866V33.3984C62.0866 33.6044 62.1174 33.7595 62.179 33.8636C62.2405 33.9654 62.3198 34.0353 62.4169 34.0732C62.5163 34.1087 62.6241 34.1264 62.7401 34.1264C62.8253 34.1264 62.8999 34.1205 62.9638 34.1087C63.0277 34.0968 63.0774 34.0874 63.1129 34.0803L63.3047 34.9574C63.2431 34.9811 63.1555 35.0047 63.0419 35.0284C62.9283 35.0545 62.7862 35.0687 62.6158 35.071C62.3364 35.0758 62.076 35.026 61.8345 34.9219C61.593 34.8177 61.3977 34.6567 61.2486 34.4389C61.0994 34.2211 61.0249 33.9477 61.0249 33.6186V28.2386ZM69.4659 35H67.1115V27.7273H69.5405C70.2531 27.7273 70.8651 27.8729 71.3764 28.1641C71.8878 28.4529 72.2796 28.8684 72.5518 29.4105C72.8265 29.9503 72.9638 30.5978 72.9638 31.353C72.9638 32.1106 72.8253 32.7616 72.5483 33.3061C72.2737 33.8506 71.8759 34.2696 71.3551 34.5632C70.8343 34.8544 70.2045 35 69.4659 35ZM68.2088 34.0412H69.4055C69.9595 34.0412 70.42 33.937 70.7869 33.7287C71.1539 33.518 71.4285 33.2138 71.6108 32.8161C71.7931 32.416 71.8842 31.9283 71.8842 31.353C71.8842 30.7824 71.7931 30.2983 71.6108 29.9006C71.4309 29.5028 71.1622 29.201 70.8047 28.995C70.4472 28.7891 70.0033 28.6861 69.473 28.6861H68.2088V34.0412ZM76.5939 35.1101C76.0565 35.1101 75.5937 34.9953 75.2054 34.7656C74.8195 34.5336 74.5212 34.2081 74.3105 33.7891C74.1022 33.3677 73.998 32.8741 73.998 32.3082C73.998 31.7495 74.1022 31.2571 74.3105 30.831C74.5212 30.4048 74.8148 30.0722 75.1912 29.8331C75.57 29.594 76.0127 29.4744 76.5194 29.4744C76.8271 29.4744 77.1254 29.5253 77.4142 29.6271C77.7031 29.7289 77.9623 29.8887 78.1919 30.1065C78.4216 30.3243 78.6027 30.6072 78.7353 30.9553C78.8678 31.3009 78.9341 31.7211 78.9341 32.2159V32.5923H74.5982V31.7969H77.8936C77.8936 31.5175 77.8368 31.2701 77.7232 31.0547C77.6096 30.8369 77.4498 30.6652 77.2438 30.5398C77.0402 30.4143 76.8011 30.3516 76.5265 30.3516C76.2282 30.3516 75.9677 30.425 75.7452 30.5717C75.525 30.7161 75.3546 30.9055 75.2338 31.1399C75.1155 31.3719 75.0563 31.6241 75.0563 31.8963V32.5178C75.0563 32.8823 75.1202 33.1925 75.248 33.4482C75.3783 33.7038 75.5594 33.8991 75.7914 34.0341C76.0234 34.1667 76.2944 34.233 76.6046 34.233C76.8058 34.233 76.9893 34.2045 77.155 34.1477C77.3207 34.0885 77.464 34.0009 77.5847 33.8849C77.7054 33.7689 77.7978 33.6257 77.8617 33.4553L78.8667 33.6364C78.7862 33.9323 78.6417 34.1915 78.4334 34.4141C78.2275 34.6342 77.9682 34.8059 77.6557 34.929C77.3456 35.0497 76.9917 35.1101 76.5939 35.1101ZM84.1996 30.8771L83.2372 31.0476C83.197 30.9245 83.133 30.8073 83.0455 30.696C82.9602 30.5848 82.8442 30.4936 82.6974 30.4226C82.5507 30.3516 82.3672 30.3161 82.147 30.3161C81.8464 30.3161 81.5954 30.3835 81.3942 30.5185C81.1929 30.651 81.0923 30.8227 81.0923 31.0334C81.0923 31.2157 81.1598 31.3625 81.2947 31.4737C81.4297 31.585 81.6475 31.6761 81.9482 31.7472L82.8146 31.946C83.3165 32.062 83.6906 32.2408 83.9368 32.4822C84.183 32.7237 84.3061 33.0374 84.3061 33.4233C84.3061 33.75 84.2114 34.0412 84.022 34.2969C83.835 34.5502 83.5734 34.7491 83.2372 34.8935C82.9034 35.0379 82.5163 35.1101 82.076 35.1101C81.4652 35.1101 80.9669 34.9799 80.581 34.7195C80.1951 34.4567 79.9583 34.0838 79.8707 33.6009L80.897 33.4446C80.9609 33.7121 81.0923 33.9145 81.2912 34.0518C81.4901 34.1868 81.7493 34.2543 82.0689 34.2543C82.4169 34.2543 82.6951 34.1821 82.9034 34.0376C83.1117 33.8909 83.2159 33.7121 83.2159 33.5014C83.2159 33.331 83.152 33.1877 83.0241 33.0717C82.8987 32.9557 82.7057 32.8681 82.4453 32.8089L81.522 32.6065C81.013 32.4905 80.6366 32.3059 80.3928 32.0526C80.1513 31.7992 80.0305 31.4785 80.0305 31.0902C80.0305 30.7682 80.1205 30.4865 80.3004 30.245C80.4804 30.0036 80.7289 29.8153 81.0462 29.6804C81.3634 29.5431 81.7268 29.4744 82.1364 29.4744C82.7259 29.4744 83.1899 29.6023 83.5284 29.858C83.867 30.1113 84.0907 30.451 84.1996 30.8771ZM85.4735 35V29.5455H86.5353V35H85.4735ZM86.0098 28.7038C85.8251 28.7038 85.6665 28.6423 85.5339 28.5192C85.4037 28.3937 85.3386 28.2446 85.3386 28.0717C85.3386 27.8965 85.4037 27.7474 85.5339 27.6243C85.6665 27.4988 85.8251 27.4361 86.0098 27.4361C86.1944 27.4361 86.3519 27.4988 86.4821 27.6243C86.6146 27.7474 86.6809 27.8965 86.6809 28.0717C86.6809 28.2446 86.6146 28.3937 86.4821 28.5192C86.3519 28.6423 86.1944 28.7038 86.0098 28.7038ZM90.2507 37.1591C89.8175 37.1591 89.4446 37.1023 89.1321 36.9886C88.822 36.875 88.5687 36.7247 88.3722 36.5376C88.1757 36.3506 88.0289 36.1458 87.9318 35.9233L88.8445 35.5469C88.9084 35.651 88.9936 35.7611 89.1001 35.8771C89.209 35.9955 89.3558 36.0961 89.5405 36.179C89.7275 36.2618 89.9678 36.3033 90.2614 36.3033C90.6638 36.3033 90.9964 36.205 91.2592 36.0085C91.522 35.8144 91.6534 35.5043 91.6534 35.0781V34.0057H91.5859C91.522 34.1217 91.4297 34.2507 91.3089 34.3928C91.1906 34.5348 91.0272 34.6579 90.8189 34.7621C90.6106 34.8662 90.3395 34.9183 90.0057 34.9183C89.5748 34.9183 89.1866 34.8177 88.8409 34.6165C88.4976 34.4129 88.2254 34.1134 88.0241 33.718C87.8253 33.3203 87.7259 32.8314 87.7259 32.2514C87.7259 31.6714 87.8241 31.1742 88.0206 30.7599C88.2195 30.3456 88.4917 30.0284 88.8374 29.8082C89.183 29.5857 89.5748 29.4744 90.0128 29.4744C90.3513 29.4744 90.6248 29.5312 90.8331 29.6449C91.0414 29.7562 91.2036 29.8864 91.3196 30.0355C91.438 30.1847 91.5291 30.3161 91.593 30.4297H91.6712V29.5455H92.7116V35.1207C92.7116 35.5895 92.6027 35.9742 92.3849 36.2749C92.1671 36.5755 91.8724 36.7981 91.5007 36.9425C91.1314 37.0869 90.7147 37.1591 90.2507 37.1591ZM90.2401 34.0376C90.5455 34.0376 90.8035 33.9666 91.0142 33.8246C91.2273 33.6802 91.3883 33.4742 91.4972 33.2067C91.6084 32.9368 91.6641 32.6136 91.6641 32.2372C91.6641 31.8703 91.6096 31.5471 91.5007 31.2678C91.3918 30.9884 91.232 30.7706 91.0213 30.6143C90.8106 30.4557 90.5502 30.3764 90.2401 30.3764C89.9205 30.3764 89.6541 30.4593 89.4411 30.625C89.228 30.7884 89.067 31.0109 88.9581 31.2926C88.8516 31.5743 88.7983 31.8892 88.7983 32.2372C88.7983 32.5947 88.8527 32.9084 88.9616 33.1783C89.0705 33.4482 89.2315 33.6589 89.4446 33.8104C89.66 33.9619 89.9252 34.0376 90.2401 34.0376ZM95.1974 31.7614V35H94.1357V29.5455H95.1548V30.4332H95.2223C95.3478 30.1444 95.5443 29.9124 95.8118 29.7372C96.0817 29.562 96.4214 29.4744 96.831 29.4744C97.2027 29.4744 97.5282 29.5526 97.8075 29.7088C98.0869 29.8627 98.3035 30.0923 98.4574 30.3977C98.6113 30.7031 98.6882 31.0807 98.6882 31.5305V35H97.6264V31.6584C97.6264 31.263 97.5234 30.9541 97.3175 30.7315C97.1115 30.5066 96.8286 30.3942 96.4688 30.3942C96.2225 30.3942 96.0036 30.4474 95.8118 30.554C95.6224 30.6605 95.4721 30.8168 95.3608 31.0227C95.2519 31.2263 95.1974 31.4725 95.1974 31.7614Z" fill="white"/>
</g>
<defs>
<filter id="filter0_d_169_1157" x="2.9248" y="2.09058" width="20.3721" height="22.1733" filterUnits="userSpaceOnUse" color-interpolation-filters="sRGB">
<feFlood flood-opacity="0" result="BackgroundImageFix"/>
<feColorMatrix in="SourceAlpha" type="matrix" values="0 0 0 0 0 0 0 0 0 0 0 0 0 0 0 0 0 0 127 0" result="hardAlpha"/>
<feOffset dy="1"/>
<feGaussianBlur stdDeviation="1"/>
<feComposite in2="hardAlpha" operator="out"/>
<feColorMatrix type="matrix" values="0 0 0 0 0 0 0 0 0 0 0 0 0 0 0 0 0 0 0.25 0"/>
<feBlend mode="normal" in2="BackgroundImageFix" result="effect1_dropShadow_169_1157"/>
<feBlend mode="normal" in="SourceGraphic" in2="effect1_dropShadow_169_1157" result="shape"/>
</filter>
<filter id="filter1_d_169_1157" x="8" y="10" width="122" height="50" filterUnits="userSpaceOnUse" color-interpolation-filters="sRGB">
<feFlood flood-opacity="0" result="BackgroundImageFix"/>
<feColorMatrix in="SourceAlpha" type="matrix" values="0 0 0 0 0 0 0 0 0 0 0 0 0 0 0 0 0 0 127 0" result="hardAlpha"/>
<feOffset dx="4" dy="4"/>
<feGaussianBlur stdDeviation="5"/>
<feComposite in2="hardAlpha" operator="out"/>
<feColorMatrix type="matrix" values="0 0 0 0 0.933333 0 0 0 0 0.27451 0 0 0 0 0.737255 0 0 0 0.16 0"/>
<feBlend mode="normal" in2="BackgroundImageFix" result="effect1_dropShadow_169_1157"/>
<feBlend mode="normal" in="SourceGraphic" in2="effect1_dropShadow_169_1157" result="shape"/>
</filter>
</defs>
</svg>
