<svg width="50" height="51" viewBox="0 0 50 51" fill="none" xmlns="http://www.w3.org/2000/svg">
<rect y="0.655273" width="50" height="50" rx="25" fill="black"/>
<path d="M18.6789 24.4802L16.3329 23.1417C16.1972 23.0666 16.0879 22.9576 16.0051 22.815C15.9223 22.6723 15.8809 22.5184 15.8809 22.3532V19.6762C15.8809 19.5111 15.9223 19.3571 16.0051 19.2145C16.0879 19.0718 16.1972 18.963 16.3329 18.888L18.6789 17.5495C18.814 17.4725 18.9642 17.434 19.1294 17.434C19.2945 17.434 19.4457 17.4725 19.5829 17.5495L21.9289 18.888C22.0645 18.963 22.1738 19.0718 22.2566 19.2145C22.3394 19.3571 22.3809 19.5111 22.3809 19.6762V22.3532C22.3809 22.5184 22.3394 22.6723 22.2566 22.815C22.1738 22.9576 22.0645 23.0666 21.9289 23.1417L19.5829 24.4802C19.4477 24.5571 19.2975 24.5955 19.1324 24.5955C18.9672 24.5955 18.816 24.5571 18.6789 24.4802ZM19.1309 23.0032L20.8809 22.009V20.0205L19.1309 19.0262L17.3809 20.0205V22.009L19.1309 23.0032ZM29.7654 25.1552V23.4167L31.9769 24.7187C32.2632 24.8836 32.4854 25.1047 32.6436 25.3822C32.8018 25.6596 32.8809 25.9556 32.8809 26.2705V30.9127C32.8809 31.2277 32.8018 31.5239 32.6436 31.8012C32.4854 32.0786 32.2632 32.2997 31.9769 32.4647L28.0346 34.761C27.7479 34.925 27.4462 35.007 27.1294 35.007C26.8124 35.007 26.5116 34.925 26.2271 34.761L22.2846 32.4647C21.9984 32.2997 21.7763 32.0786 21.6181 31.8012C21.4599 31.5239 21.3809 31.2277 21.3809 30.9127V26.2705C21.3809 25.9556 21.4599 25.6596 21.6181 25.3822C21.7763 25.1047 21.9984 24.8836 22.2846 24.7187L24.4961 23.4167V25.1552L22.8809 26.0975V31.087L27.1309 33.5552L31.3809 31.087V26.0975L29.7654 25.1552ZM27.8809 21.8032V27.0532C27.8809 27.2657 27.8089 27.4439 27.6651 27.5877C27.5213 27.7314 27.3431 27.8032 27.1306 27.8032C26.9179 27.8032 26.7399 27.7314 26.5964 27.5877C26.4527 27.4439 26.3809 27.2657 26.3809 27.0532V17.2072C26.3809 16.9511 26.4674 16.7364 26.6406 16.5632C26.8139 16.3899 27.0286 16.3032 27.2846 16.3032H33.1886C33.5469 16.3032 33.8157 16.4622 33.9949 16.7802C34.174 17.0982 34.1597 17.4078 33.9519 17.709L33.3904 18.5512C33.2865 18.7029 33.2346 18.8696 33.2346 19.0515C33.2346 19.2335 33.2865 19.4014 33.3904 19.5552L33.9519 20.3975C34.1597 20.6988 34.174 21.0084 33.9949 21.3262C33.8157 21.6442 33.5469 21.8032 33.1886 21.8032H27.8809Z" fill="#00FFFF"/>
</svg>
